<?xml version="1.0" encoding="UTF-8"?>
<!DOCTYPE svg PUBLIC "-//W3C//DTD SVG 1.1//EN" "http://www.w3.org/Graphics/SVG/1.1/DTD/svg11.dtd">
<svg xmlns="http://www.w3.org/2000/svg" version="1.1" width="1920px" height="1080px" style="shape-rendering:geometricPrecision; text-rendering:geometricPrecision; image-rendering:optimizeQuality; fill-rule:evenodd; clip-rule:evenodd" xmlns:xlink="http://www.w3.org/1999/xlink">
<g><path style="opacity:0.075" fill="#545454" d="M 1256.5,366.5 C 1244.89,364.643 1233.22,363.31 1221.5,362.5C 1221.17,361.167 1220.83,361.167 1220.5,362.5C 1208.83,362.333 1197.16,362.5 1185.5,363C 1178.91,364.482 1172.24,365.316 1165.5,365.5C 1195.92,358.573 1226.25,358.906 1256.5,366.5 Z"/></g>
<g><path style="opacity:0.071" fill="#4c4c4c" d="M 1256.5,366.5 C 1259.5,366.294 1262.16,366.96 1264.5,368.5C 1261.5,368.706 1258.84,368.04 1256.5,366.5 Z"/></g>
<g><path style="opacity:0.043" fill="#474747" d="M 1265.5,368.5 C 1268.15,368.41 1270.49,369.076 1272.5,370.5C 1269.85,370.59 1267.51,369.924 1265.5,368.5 Z"/></g>
<g><path style="opacity:0.035" fill="#737373" d="M 1272.5,370.5 C 1274.79,370.595 1276.79,371.262 1278.5,372.5C 1275.99,372.946 1273.99,372.28 1272.5,370.5 Z"/></g>
<g><path style="opacity:0.02" fill="#5e5e5e" d="M 1155.5,367.5 C 1148.56,370.556 1141.22,372.556 1133.5,373.5C 1140.62,371.081 1147.96,369.081 1155.5,367.5 Z"/></g>
<g><path style="opacity:0.039" fill="#515151" d="M 1133.5,373.5 C 1129.25,375.921 1124.58,377.588 1119.5,378.5C 1119.61,377.883 1119.94,377.383 1120.5,377C 1124.84,375.718 1129.17,374.551 1133.5,373.5 Z"/></g>
<g><path style="opacity:0.212" fill="#868686" d="M 1278.5,372.5 C 1283.55,372.855 1288.22,374.188 1292.5,376.5C 1291.83,376.5 1291.5,376.833 1291.5,377.5C 1286.54,377.179 1282.21,375.512 1278.5,372.5 Z"/></g>
<g><path style="opacity:0.031" fill="#454545" d="M 1292.5,377.5 C 1292.5,377.167 1292.5,376.833 1292.5,376.5C 1295.44,376.98 1298.11,377.98 1300.5,379.5C 1300.17,379.5 1299.83,379.5 1299.5,379.5C 1297.08,379.122 1294.75,378.455 1292.5,377.5 Z"/></g>
<g><path style="opacity:0.016" fill="#515151" d="M 1373.5,384.5 C 1374.26,379.094 1371.93,377.094 1366.5,378.5C 1373.06,375.392 1375.4,377.392 1373.5,384.5 Z"/></g>
<g><path style="opacity:0.227" fill="#b2b2b2" d="M 1366.5,378.5 C 1371.93,377.094 1374.26,379.094 1373.5,384.5C 1372.45,384.905 1372.45,385.571 1373.5,386.5C 1372.45,387.548 1371.45,388.548 1370.5,389.5C 1371.21,386.214 1371.54,382.881 1371.5,379.5C 1369.19,379.993 1366.86,380.326 1364.5,380.5C 1365.17,379.833 1365.83,379.167 1366.5,378.5 Z"/></g>
<g><path style="opacity:0.282" fill="#787878" d="M 1119.5,378.5 C 1118.25,380.136 1116.58,381.303 1114.5,382C 1110.39,384.052 1106.05,385.552 1101.5,386.5C 1106.95,382.894 1112.95,380.227 1119.5,378.5 Z"/></g>
<g><path style="opacity:0.016" fill="#6a6a6a" d="M 1366.5,378.5 C 1365.83,379.167 1365.17,379.833 1364.5,380.5C 1355.07,383.606 1345.41,385.606 1335.5,386.5C 1345.83,384.285 1356.17,381.619 1366.5,378.5 Z"/></g>
<g><path style="opacity:0.008" fill="#646464" d="M 1100.5,387.5 C 1098.06,388.871 1095.4,389.871 1092.5,390.5C 1094.5,388.81 1096.84,387.476 1099.5,386.5C 1100.11,386.624 1100.44,386.957 1100.5,387.5 Z"/></g>
<g><path style="opacity:0.02" fill="#b4b5b4" d="M 1370.5,389.5 C 1369.4,390.558 1368.07,391.392 1366.5,392C 1367.03,392.692 1367.69,393.192 1368.5,393.5C 1370.59,391.977 1372.25,392.31 1373.5,394.5C 1372.48,396.604 1371.48,398.604 1370.5,400.5C 1370.36,398.738 1370.69,397.071 1371.5,395.5C 1368.83,394.833 1366.17,394.167 1363.5,393.5C 1365.08,390.875 1367.41,389.542 1370.5,389.5 Z"/></g>
<g><path style="opacity:0.592" fill="#828282" d="M 1092.5,390.5 C 1089.24,393.79 1085.24,395.457 1080.5,395.5C 1084.21,393.315 1088.21,391.648 1092.5,390.5 Z"/></g>
<g><path style="opacity:0.008" fill="#555555" d="M 919.5,395.5 C 917.5,395.5 915.5,395.5 913.5,395.5C 913.263,396.791 913.596,397.791 914.5,398.5C 914.5,400.833 914.5,403.167 914.5,405.5C 914.167,405.5 913.833,405.5 913.5,405.5C 913.522,401.975 913.022,398.642 912,395.5C 914.605,394.186 917.105,394.186 919.5,395.5 Z"/></g>
<g><path style="opacity:0.95" fill="#f3f3f4" d="M 1227.5,399.5 C 1230.17,399.5 1232.83,399.5 1235.5,399.5C 1235.36,401.124 1236.03,402.29 1237.5,403C 1243.82,403.5 1250.16,403.666 1256.5,403.5C 1256.08,405.781 1256.74,407.448 1258.5,408.5C 1265.55,408.27 1272.55,408.77 1279.5,410C 1280.42,410.374 1281.25,410.874 1282,411.5C 1282.27,413.101 1282.77,414.601 1283.5,416C 1291.56,416.136 1299.56,416.803 1307.5,418C 1309.25,418.471 1310.91,419.138 1312.5,420C 1312.96,422.312 1313.96,424.312 1315.5,426C 1321.16,426.499 1326.82,426.666 1332.5,426.5C 1337.5,426.5 1342.5,426.5 1347.5,426.5C 1342.01,427.327 1336.35,427.827 1330.5,428C 1330.83,429 1331.17,430 1331.5,431C 1326.65,431.059 1321.99,431.726 1317.5,433C 1324.83,433.333 1332.17,433.667 1339.5,434C 1342.06,435.851 1342.06,437.684 1339.5,439.5C 1342.79,439.698 1344.45,441.365 1344.5,444.5C 1348.5,444.5 1352.5,444.5 1356.5,444.5C 1356.36,442.876 1357.03,441.71 1358.5,441C 1358.04,440.586 1357.71,440.086 1357.5,439.5C 1360.09,438.416 1362.25,436.749 1364,434.5C 1364.33,434.833 1364.67,435.167 1365,435.5C 1365.48,434.552 1365.65,433.552 1365.5,432.5C 1363.36,432.703 1361.7,433.703 1360.5,435.5C 1359.5,432.931 1360.33,430.931 1363,429.5C 1364.73,429.946 1366.23,430.779 1367.5,432C 1369.13,432.494 1370.8,432.66 1372.5,432.5C 1371.39,433.29 1370.06,433.79 1368.5,434C 1369.03,434.692 1369.69,435.192 1370.5,435.5C 1375.07,435.214 1379.74,435.214 1384.5,435.5C 1394.93,436.619 1405.27,438.453 1415.5,441C 1418.86,442.502 1422.19,444.002 1425.5,445.5C 1427.34,445.639 1427.67,446.306 1426.5,447.5C 1394.88,445.853 1363.22,448.02 1331.5,454C 1321.83,456.171 1312.5,459.004 1303.5,462.5C 1295.56,463.259 1288.23,465.593 1281.5,469.5C 1279.67,470.14 1279.33,471.14 1280.5,472.5C 1281.54,470.009 1282.37,470.009 1283,472.5C 1285.67,471.718 1288.17,470.718 1290.5,469.5C 1291.17,469.5 1291.5,469.167 1291.5,468.5C 1329.87,456.377 1369.53,450.377 1410.5,450.5C 1419.83,450.5 1429.17,450.5 1438.5,450.5C 1442.32,450.605 1445.99,451.438 1449.5,453C 1452.88,455.41 1456.22,457.91 1459.5,460.5C 1460.69,461.429 1462.02,461.762 1463.5,461.5C 1463.5,462.833 1463.5,464.167 1463.5,465.5C 1462.39,466.29 1461.06,466.79 1459.5,467C 1458.26,467.69 1458.26,468.19 1459.5,468.5C 1464.41,469.831 1469.41,471.164 1474.5,472.5C 1476.06,472.733 1477.4,473.4 1478.5,474.5C 1478.34,475.873 1478.51,477.207 1479,478.5C 1480.99,479.665 1482.83,480.998 1484.5,482.5C 1484.66,484.527 1484.5,486.527 1484,488.5C 1483.62,489.056 1483.12,489.389 1482.5,489.5C 1462.66,489.17 1442.99,489.503 1423.5,490.5C 1418.83,490.5 1414.17,490.5 1409.5,490.5C 1400.44,489.864 1391.77,490.53 1383.5,492.5C 1379.18,492.927 1374.84,493.261 1370.5,493.5C 1366.15,493.334 1361.82,493.501 1357.5,494C 1355.15,494.24 1353.15,495.073 1351.5,496.5C 1348.9,497.265 1346.24,497.599 1343.5,497.5C 1339.52,498.021 1335.52,498.354 1331.5,498.5C 1323.84,498.371 1316.5,499.704 1309.5,502.5C 1309.17,502.5 1308.83,502.5 1308.5,502.5C 1302.19,503.629 1295.85,504.629 1289.5,505.5C 1287.61,500.291 1284.44,499.291 1280,502.5C 1279.5,504.81 1279.34,507.143 1279.5,509.5C 1279.16,510.338 1278.49,510.672 1277.5,510.5C 1268.17,510.5 1258.83,510.5 1249.5,510.5C 1248.83,510.5 1248.17,510.5 1247.5,510.5C 1243.45,510.605 1239.45,510.272 1235.5,509.5C 1233.3,508.835 1230.97,508.168 1228.5,507.5C 1231.51,506.252 1234.51,506.252 1237.5,507.5C 1240.22,505.889 1243.22,505.056 1246.5,505C 1243.83,504.667 1241.17,504.333 1238.5,504C 1248.83,503.667 1259.17,503.333 1269.5,503C 1270.06,502.617 1270.39,502.117 1270.5,501.5C 1276.19,500.005 1278.03,496.338 1276,490.5C 1275.53,488.754 1274.86,487.087 1274,485.5C 1266.09,474.536 1256.92,464.703 1246.5,456C 1222.98,436.849 1196.48,423.349 1167,415.5C 1165.35,410.184 1166.85,405.684 1171.5,402C 1176.71,398.816 1182.04,395.816 1187.5,393C 1191.82,392.501 1196.15,392.334 1200.5,392.5C 1200.5,393.833 1200.5,395.167 1200.5,396.5C 1205.8,395.725 1211.13,395.392 1216.5,395.5C 1216.33,396.822 1216.66,397.989 1217.5,399C 1220.82,399.498 1224.15,399.665 1227.5,399.5 Z M 1233.5,415.5 C 1234.83,415.5 1235.5,416.167 1235.5,417.5C 1230.75,419.882 1226.75,423.216 1223.5,427.5C 1222.5,427.5 1221.5,427.5 1220.5,427.5C 1220.62,425.053 1221.62,423.053 1223.5,421.5C 1226.54,420.32 1229.21,418.653 1231.5,416.5C 1232.17,416.167 1232.83,415.833 1233.5,415.5 Z M 1277.5,418.5 C 1276.17,418.5 1274.83,418.5 1273.5,418.5C 1270.22,418.928 1267.22,419.928 1264.5,421.5C 1262.1,422.049 1259.77,422.882 1257.5,424C 1256.62,424.708 1255.95,425.542 1255.5,426.5C 1254.83,426.5 1254.17,426.5 1253.5,426.5C 1250.33,427.917 1247.33,429.583 1244.5,431.5C 1242.08,432.024 1239.41,433.024 1236.5,434.5C 1236.86,432.629 1237.86,431.129 1239.5,430C 1241.73,429.059 1243.73,427.892 1245.5,426.5C 1247.38,426.771 1248.71,426.104 1249.5,424.5C 1250.17,424.167 1250.83,423.833 1251.5,423.5C 1258.67,419.786 1266.34,417.453 1274.5,416.5C 1276.03,416.64 1277.03,417.307 1277.5,418.5 Z M 1226.5,405.5 C 1220.4,410.428 1214.4,415.594 1208.5,421C 1207.67,421.688 1207,421.521 1206.5,420.5C 1210.61,415.459 1214.94,411.293 1219.5,408C 1221.65,406.589 1223.98,405.755 1226.5,405.5 Z M 1201.5,409.5 C 1198.77,410.713 1196.44,412.546 1194.5,415C 1193.56,415.692 1192.9,415.525 1192.5,414.5C 1196.73,410.371 1201.4,406.704 1206.5,403.5C 1206.83,403.833 1207.17,404.167 1207.5,404.5C 1205.47,406.175 1203.47,407.841 1201.5,409.5 Z M 1294.5,427.5 C 1296.5,427.5 1298.5,427.5 1300.5,427.5C 1300.5,428.5 1300.5,429.5 1300.5,430.5C 1299.17,430.5 1297.83,430.5 1296.5,430.5C 1296.44,429.957 1296.11,429.624 1295.5,429.5C 1292.63,430.775 1289.63,431.608 1286.5,432C 1281.75,433.185 1277.41,435.018 1273.5,437.5C 1271.42,437.971 1269.42,438.637 1267.5,439.5C 1264.11,439.346 1261.11,440.679 1258.5,443.5C 1256.5,444.167 1254.5,444.833 1252.5,445.5C 1252.92,443.09 1254.25,441.257 1256.5,440C 1260.44,437.861 1264.44,436.028 1268.5,434.5C 1270.06,434.267 1271.4,433.6 1272.5,432.5C 1273.96,433.471 1275.3,433.138 1276.5,431.5C 1279.43,431.435 1282.09,430.768 1284.5,429.5C 1288.12,429.678 1291.46,429.011 1294.5,427.5 Z M 1321.5,439.5 C 1323.53,439.338 1325.53,439.505 1327.5,440C 1325,440.698 1322.66,441.531 1320.5,442.5C 1316.42,442.583 1312.59,443.583 1309,445.5C 1308.44,444.978 1307.77,444.645 1307,444.5C 1304.42,445.589 1301.92,446.589 1299.5,447.5C 1294.19,447.686 1289.02,449.352 1284,452.5C 1283.67,452.167 1283.33,451.833 1283,451.5C 1279.42,453.264 1275.92,454.93 1272.5,456.5C 1268.44,457.558 1267.77,456.391 1270.5,453C 1277.45,450.024 1284.45,447.524 1291.5,445.5C 1293.29,445.634 1294.96,445.301 1296.5,444.5C 1299.37,444.198 1302.04,443.531 1304.5,442.5C 1307.73,442.324 1310.73,441.657 1313.5,440.5C 1316.06,440.68 1318.73,440.347 1321.5,439.5 Z M 1431.5,464.5 C 1437.57,466.248 1443.91,466.915 1450.5,466.5C 1450.17,467.167 1449.83,467.833 1449.5,468.5C 1438.9,468.649 1428.4,468.649 1418,468.5C 1416.69,469.573 1415.19,470.24 1413.5,470.5C 1409.35,470.008 1405.18,469.674 1401,469.5C 1400.61,470.428 1399.95,471.095 1399,471.5C 1395.66,469.999 1392.49,470.332 1389.5,472.5C 1387.29,471.601 1385.13,471.935 1383,473.5C 1382.44,472.978 1381.77,472.645 1381,472.5C 1377.52,473.329 1374.02,473.996 1370.5,474.5C 1366.21,474.198 1362.21,474.864 1358.5,476.5C 1358.17,476.5 1357.83,476.5 1357.5,476.5C 1352.7,476.983 1347.7,477.983 1342.5,479.5C 1340.94,478.653 1339.44,478.986 1338,480.5C 1335.25,479.647 1332.75,480.313 1330.5,482.5C 1329.71,482.069 1328.87,481.735 1328,481.5C 1321.59,484.178 1315.09,486.178 1308.5,487.5C 1303.54,488.426 1298.54,489.092 1293.5,489.5C 1293.24,488.022 1293.57,486.689 1294.5,485.5C 1297.5,483.332 1300.83,482.332 1304.5,482.5C 1307.75,481.946 1310.75,480.946 1313.5,479.5C 1317.45,479.314 1321.28,478.648 1325,477.5C 1326.31,478.287 1327.48,477.954 1328.5,476.5C 1335.23,475.483 1341.9,474.15 1348.5,472.5C 1351.55,472.296 1354.38,472.296 1357,472.5C 1358.62,471.901 1360.12,471.234 1361.5,470.5C 1361.83,470.5 1362.17,470.5 1362.5,470.5C 1372.1,470.182 1381.77,469.182 1391.5,467.5C 1394.72,467.713 1398.06,467.38 1401.5,466.5C 1408.65,465.62 1415.65,465.286 1422.5,465.5C 1425.52,465.296 1428.52,464.963 1431.5,464.5 Z M 1289.5,467.5 C 1289.33,468.492 1289.66,469.158 1290.5,469.5C 1288.17,470.718 1285.67,471.718 1283,472.5C 1282.37,470.009 1281.54,470.009 1280.5,472.5C 1279.33,471.14 1279.67,470.14 1281.5,469.5C 1282.5,469.414 1283.33,469.748 1284,470.5C 1284.61,468.519 1285.61,468.185 1287,469.5C 1287.71,468.619 1288.54,467.953 1289.5,467.5 Z"/></g>
<g><path style="opacity:0.008" fill="#605c59" d="M 1369.5,401.5 C 1366.61,405.204 1362.78,407.537 1358,408.5C 1357.6,408.272 1357.43,407.938 1357.5,407.5C 1361.74,406.047 1365.74,404.047 1369.5,401.5 Z"/></g>
<g><path style="opacity:0.888" fill="#fdfdfd" d="M 1387.5,407.5 C 1390.62,408.87 1393.95,409.87 1397.5,410.5C 1398.65,409.375 1399.65,409.375 1400.5,410.5C 1415.4,412.965 1430.4,415.632 1445.5,418.5C 1465.22,424.399 1485.22,429.733 1505.5,434.5C 1510.6,435.121 1515.6,436.121 1520.5,437.5C 1520.92,438.222 1521.58,438.722 1522.5,439C 1531.19,440.701 1539.86,440.701 1548.5,439C 1551.76,437.884 1554.42,436.051 1556.5,433.5C 1558.01,430.661 1559.01,427.661 1559.5,424.5C 1558.8,420.765 1557.8,417.099 1556.5,413.5C 1557.78,411.296 1559.45,410.962 1561.5,412.5C 1564.98,414.64 1567.31,417.64 1568.5,421.5C 1568.83,422.833 1569.17,422.833 1569.5,421.5C 1569.5,417.466 1569.16,413.466 1568.5,409.5C 1573.94,408.884 1577.28,411.217 1578.5,416.5C 1579.5,424.377 1578,431.711 1574,438.5C 1570.6,441.399 1567.76,444.733 1565.5,448.5C 1563.4,449.519 1561.4,450.519 1559.5,451.5C 1552.38,453.479 1545.05,454.812 1537.5,455.5C 1535.5,455.5 1533.5,455.5 1531.5,455.5C 1520.59,453.05 1509.59,450.717 1498.5,448.5C 1498.17,448.5 1497.83,448.5 1497.5,448.5C 1485.7,444.8 1473.7,441.467 1461.5,438.5C 1458.06,437.055 1454.4,436.055 1450.5,435.5C 1450.17,435.5 1449.83,435.5 1449.5,435.5C 1447.56,433.837 1445.23,433.171 1442.5,433.5C 1434.79,430.988 1426.79,429.322 1418.5,428.5C 1417.17,428.5 1415.83,428.5 1414.5,428.5C 1408.96,426.672 1403.12,425.672 1397,425.5C 1394.97,425.506 1393.13,425.839 1391.5,426.5C 1384.35,426.199 1378.02,428.199 1372.5,432.5C 1370.8,432.66 1369.13,432.494 1367.5,432C 1366.23,430.779 1364.73,429.946 1363,429.5C 1360.33,430.931 1359.5,432.931 1360.5,435.5C 1361.7,433.703 1363.36,432.703 1365.5,432.5C 1365.65,433.552 1365.48,434.552 1365,435.5C 1364.67,435.167 1364.33,434.833 1364,434.5C 1362.25,436.749 1360.09,438.416 1357.5,439.5C 1357.71,440.086 1358.04,440.586 1358.5,441C 1357.03,441.71 1356.36,442.876 1356.5,444.5C 1352.5,444.5 1348.5,444.5 1344.5,444.5C 1344.45,441.365 1342.79,439.698 1339.5,439.5C 1342.06,437.684 1342.06,435.851 1339.5,434C 1332.17,433.667 1324.83,433.333 1317.5,433C 1321.99,431.726 1326.65,431.059 1331.5,431C 1331.17,430 1330.83,429 1330.5,428C 1336.35,427.827 1342.01,427.327 1347.5,426.5C 1349.14,426.19 1350.14,425.19 1350.5,423.5C 1350.33,422.508 1350.66,421.842 1351.5,421.5C 1353.56,421.313 1355.56,420.813 1357.5,420C 1364.64,414.962 1371.97,410.296 1379.5,406C 1382.41,405.282 1385.07,405.782 1387.5,407.5 Z"/></g>
<g><path style="opacity:0.051" fill="#879da0" d="M 1387.5,407.5 C 1391.29,407.32 1394.62,408.32 1397.5,410.5C 1393.95,409.87 1390.62,408.87 1387.5,407.5 Z"/></g>
<g><path style="opacity:0.314" fill="#858585" d="M 914.5,398.5 C 915.477,401.287 915.81,404.287 915.5,407.5C 904.577,406.908 893.91,407.908 883.5,410.5C 887.048,408.101 891.048,406.601 895.5,406C 901.491,405.501 907.491,405.334 913.5,405.5C 913.833,406.833 914.167,406.833 914.5,405.5C 914.5,403.167 914.5,400.833 914.5,398.5 Z"/></g>
<g><path style="opacity:0.027" fill="#41605f" d="M 1579.5,416.5 C 1579.17,416.5 1578.83,416.5 1578.5,416.5C 1577.28,411.217 1573.94,408.884 1568.5,409.5C 1568.17,409.5 1567.83,409.5 1567.5,409.5C 1567.81,408.522 1568.48,407.855 1569.5,407.5C 1575.37,407.756 1578.7,410.756 1579.5,416.5 Z"/></g>
<g><path style="opacity:0.027" fill="#567275" d="M 1400.5,410.5 C 1415.93,411.45 1430.93,414.117 1445.5,418.5C 1430.4,415.632 1415.4,412.965 1400.5,410.5 Z"/></g>
<g><path style="opacity:0.122" fill="#8e8e8e" d="M 1277.5,418.5 C 1277.03,417.307 1276.03,416.64 1274.5,416.5C 1266.34,417.453 1258.67,419.786 1251.5,423.5C 1259.41,417.601 1268.41,414.934 1278.5,415.5C 1278.74,416.791 1278.4,417.791 1277.5,418.5 Z"/></g>
<g><path style="opacity:0.004" fill="#8c999f" d="M 1567.5,409.5 C 1567.83,409.5 1568.17,409.5 1568.5,409.5C 1569.16,413.466 1569.5,417.466 1569.5,421.5C 1569.17,421.5 1568.83,421.5 1568.5,421.5C 1567.31,417.64 1564.98,414.64 1561.5,412.5C 1562.5,412.5 1563.5,412.5 1564.5,412.5C 1568.36,417.911 1569.03,417.744 1566.5,412C 1566.74,411.098 1567.08,410.265 1567.5,409.5 Z"/></g>
<g><path style="opacity:0.974" fill="#a9a9a9" d="M 894.5,416.5 C 890.451,418.301 886.451,420.301 882.5,422.5C 882.52,420.857 881.853,419.524 880.5,418.5C 880.833,418.167 881.167,417.833 881.5,417.5C 882.772,418.046 884.106,418.379 885.5,418.5C 888.437,417.53 891.437,416.863 894.5,416.5 Z"/></g>
<g><path style="opacity:0.008" fill="#8e9696" d="M 1387.5,407.5 C 1385.07,405.782 1382.41,405.282 1379.5,406C 1371.97,410.296 1364.64,414.962 1357.5,420C 1355.56,420.813 1353.56,421.313 1351.5,421.5C 1352.66,419.797 1351.99,419.131 1349.5,419.5C 1351.95,417.895 1354.28,416.062 1356.5,414C 1354.71,411.866 1352.38,411.033 1349.5,411.5C 1351.95,410.527 1354.61,410.194 1357.5,410.5C 1357.5,413.965 1356.67,416.965 1355,419.5C 1362.66,414.292 1370.49,409.458 1378.5,405C 1380.83,404.333 1383.17,404.333 1385.5,405C 1386.76,405.417 1387.42,406.25 1387.5,407.5 Z"/></g>
<g><path style="opacity:0.996" fill="#efefef" d="M 892.5,420.5 C 896.842,420.739 901.176,421.073 905.5,421.5C 903.291,422.956 900.957,424.456 898.5,426C 895.937,427.079 893.271,427.579 890.5,427.5C 889.058,426.18 888.392,424.514 888.5,422.5C 890.38,422.771 891.713,422.104 892.5,420.5 Z"/></g>
<g><path style="opacity:0.02" fill="#476467" d="M 1445.5,418.5 C 1465.83,422.836 1485.83,428.169 1505.5,434.5C 1485.22,429.733 1465.22,424.399 1445.5,418.5 Z"/></g>
<g><path style="opacity:0.31" fill="#9e9e9e" d="M 892.5,420.5 C 891.713,422.104 890.38,422.771 888.5,422.5C 888.392,424.514 889.058,426.18 890.5,427.5C 887.034,426.891 886.034,425.058 887.5,422C 889.154,421.392 890.821,420.892 892.5,420.5 Z"/></g>
<g><path style="opacity:0.898" fill="#9b9b9d" d="M 1264.5,421.5 C 1264.5,422.5 1264.5,423.5 1264.5,424.5C 1261.22,424.21 1258.22,424.877 1255.5,426.5C 1255.95,425.542 1256.62,424.708 1257.5,424C 1259.77,422.882 1262.1,422.049 1264.5,421.5 Z"/></g>
<g><path style="opacity:0.129" fill="#5e7c7a" d="M 870.5,430.5 C 867.974,428.465 865.141,427.132 862,426.5C 856.372,428.729 850.539,430.396 844.5,431.5C 850.116,429.597 855.616,427.264 861,424.5C 862.734,425.249 864.567,425.749 866.5,426C 868.635,426.876 869.969,428.376 870.5,430.5 Z"/></g>
<g><path style="opacity:0.878" fill="#efefef" d="M 1220.5,362.5 C 1220.83,362.5 1221.17,362.5 1221.5,362.5C 1233.22,363.31 1244.89,364.643 1256.5,366.5C 1258.84,368.04 1261.5,368.706 1264.5,368.5C 1264.83,368.5 1265.17,368.5 1265.5,368.5C 1267.51,369.924 1269.85,370.59 1272.5,370.5C 1273.99,372.28 1275.99,372.946 1278.5,372.5C 1282.21,375.512 1286.54,377.179 1291.5,377.5C 1291.83,377.5 1292.17,377.5 1292.5,377.5C 1294.75,378.455 1297.08,379.122 1299.5,379.5C 1299.5,380.167 1299.83,380.5 1300.5,380.5C 1301.92,382.308 1303.92,382.975 1306.5,382.5C 1306.5,383.167 1306.83,383.5 1307.5,383.5C 1308.78,385.614 1310.78,386.614 1313.5,386.5C 1313.23,389.119 1313.56,391.619 1314.5,394C 1317.5,394.229 1318.84,392.729 1318.5,389.5C 1323.91,388.938 1329.24,387.938 1334.5,386.5C 1334.83,386.5 1335.17,386.5 1335.5,386.5C 1345.41,385.606 1355.07,383.606 1364.5,380.5C 1366.86,380.326 1369.19,379.993 1371.5,379.5C 1371.54,382.881 1371.21,386.214 1370.5,389.5C 1367.41,389.542 1365.08,390.875 1363.5,393.5C 1366.17,394.167 1368.83,394.833 1371.5,395.5C 1370.69,397.071 1370.36,398.738 1370.5,400.5C 1369.83,400.5 1369.5,400.833 1369.5,401.5C 1365.74,404.047 1361.74,406.047 1357.5,407.5C 1351.71,408.188 1345.88,408.855 1340,409.5C 1338.1,410.352 1338.27,411.019 1340.5,411.5C 1343.34,411.114 1346.34,411.114 1349.5,411.5C 1352.38,411.033 1354.71,411.866 1356.5,414C 1354.28,416.062 1351.95,417.895 1349.5,419.5C 1345.84,420.341 1342.01,421.008 1338,421.5C 1329.69,420.219 1321.53,418.386 1313.5,416C 1313,415.5 1312.5,415 1312,414.5C 1311.87,408.086 1311.2,401.753 1310,395.5C 1247.05,366.811 1183.22,364.978 1118.5,390C 1103.99,395.759 1089.66,401.759 1075.5,408C 1059.15,408.355 1042.82,409.021 1026.5,410C 1015.6,412.808 1004.6,415.141 993.5,417C 973.52,418.964 953.52,420.297 933.5,421C 929.741,419.121 926.075,417.287 922.5,415.5C 919.742,414.182 916.576,413.515 913,413.5C 909.648,413.502 906.482,413.835 903.5,414.5C 900.302,413.964 897.635,414.631 895.5,416.5C 895.167,416.5 894.833,416.5 894.5,416.5C 891.437,416.863 888.437,417.53 885.5,418.5C 884.106,418.379 882.772,418.046 881.5,417.5C 881.167,417.833 880.833,418.167 880.5,418.5C 881.853,419.524 882.52,420.857 882.5,422.5C 880.086,423.777 879.919,425.443 882,427.5C 882.671,428.252 883.504,428.586 884.5,428.5C 886.341,429.402 887.674,430.736 888.5,432.5C 888.5,433.833 888.5,435.167 888.5,436.5C 895.424,436.932 902.091,436.266 908.5,434.5C 910.898,434.741 912.898,434.074 914.5,432.5C 917.716,432.655 920.383,431.655 922.5,429.5C 926.656,427.388 930.989,425.555 935.5,424C 963.167,423.333 990.833,423.333 1018.5,424C 1033.24,424.007 1047.57,426.34 1061.5,431C 1080.64,440.802 1099.31,451.468 1117.5,463C 1126.64,467.491 1136.14,470.991 1146,473.5C 1149.5,473.485 1150.83,471.818 1150,468.5C 1148.47,467.271 1147.3,465.771 1146.5,464C 1136.88,458.568 1126.88,453.901 1116.5,450C 1113.77,447.682 1114.27,446.182 1118,445.5C 1140.59,450.376 1160.09,460.876 1176.5,477C 1183.83,482.333 1191.17,487.667 1198.5,493C 1221.86,500.89 1245.86,503.724 1270.5,501.5C 1270.39,502.117 1270.06,502.617 1269.5,503C 1259.17,503.333 1248.83,503.667 1238.5,504C 1241.17,504.333 1243.83,504.667 1246.5,505C 1243.22,505.056 1240.22,505.889 1237.5,507.5C 1234.51,506.252 1231.51,506.252 1228.5,507.5C 1230.97,508.168 1233.3,508.835 1235.5,509.5C 1227.15,509.021 1218.82,508.355 1210.5,507.5C 1204.26,505.531 1197.92,503.531 1191.5,501.5C 1190.49,500.326 1189.15,499.66 1187.5,499.5C 1185.07,499.727 1183.4,498.727 1182.5,496.5C 1181.42,494.413 1179.75,493.08 1177.5,492.5C 1176.17,490.5 1174.5,488.833 1172.5,487.5C 1170.72,483.885 1168.72,480.385 1166.5,477C 1164.54,476.156 1163.2,476.656 1162.5,478.5C 1161.63,480.69 1159.96,481.69 1157.5,481.5C 1153.45,482.678 1149.45,482.678 1145.5,481.5C 1139.13,479.049 1132.46,477.382 1125.5,476.5C 1123.58,475.637 1121.58,474.971 1119.5,474.5C 1117.27,471.55 1114.27,469.884 1110.5,469.5C 1110.5,468.833 1110.17,468.5 1109.5,468.5C 1108.61,467.89 1107.61,467.557 1106.5,467.5C 1105.31,465.025 1103.31,464.025 1100.5,464.5C 1099.08,462.455 1097.08,461.455 1094.5,461.5C 1091.02,458.16 1087.18,455.16 1083,452.5C 1081.12,450.987 1078.95,450.321 1076.5,450.5C 1076.17,450.5 1075.83,450.5 1075.5,450.5C 1073.17,447.728 1070.17,446.061 1066.5,445.5C 1065.49,444.326 1064.15,443.66 1062.5,443.5C 1061.49,442.326 1060.15,441.66 1058.5,441.5C 1058.5,440.833 1058.17,440.5 1057.5,440.5C 1055.5,438.018 1052.83,437.018 1049.5,437.5C 1048.4,436.442 1047.07,435.608 1045.5,435C 1040.16,434.529 1034.82,434.029 1029.5,433.5C 1028.17,433.5 1026.83,433.5 1025.5,433.5C 1025.16,432.662 1024.49,432.328 1023.5,432.5C 1020.69,431.681 1017.69,431.181 1014.5,431C 990.336,429.492 966.169,429.325 942,430.5C 939.39,430.533 937.223,431.2 935.5,432.5C 934.791,433.404 933.791,433.737 932.5,433.5C 929.036,434.155 925.703,435.155 922.5,436.5C 919.422,436.62 916.755,437.62 914.5,439.5C 904.161,441.677 893.828,443.011 883.5,443.5C 878.971,435.63 873.638,428.296 867.5,421.5C 867.529,419.971 868.196,418.804 869.5,418C 874.058,415.27 878.725,412.77 883.5,410.5C 893.91,407.908 904.577,406.908 915.5,407.5C 915.81,404.287 915.477,401.287 914.5,398.5C 913.596,397.791 913.263,396.791 913.5,395.5C 915.5,395.5 917.5,395.5 919.5,395.5C 921.118,397.785 923.118,399.785 925.5,401.5C 925.798,406.778 928.465,410.112 933.5,411.5C 933.611,412.117 933.944,412.617 934.5,413C 946.714,413.937 958.714,413.437 970.5,411.5C 974.684,411.149 978.684,410.482 982.5,409.5C 983.919,408.549 985.585,408.216 987.5,408.5C 992.596,408.956 997.262,407.956 1001.5,405.5C 1006.26,405.876 1010.59,404.876 1014.5,402.5C 1021.7,401.492 1028.7,400.159 1035.5,398.5C 1041.41,397.545 1047.41,397.211 1053.5,397.5C 1062.9,398.138 1071.9,397.471 1080.5,395.5C 1085.24,395.457 1089.24,393.79 1092.5,390.5C 1095.4,389.871 1098.06,388.871 1100.5,387.5C 1101.17,387.5 1101.5,387.167 1101.5,386.5C 1106.05,385.552 1110.39,384.052 1114.5,382C 1116.58,381.303 1118.25,380.136 1119.5,378.5C 1124.58,377.588 1129.25,375.921 1133.5,373.5C 1141.22,372.556 1148.56,370.556 1155.5,367.5C 1158.59,366.215 1161.92,365.549 1165.5,365.5C 1172.24,365.316 1178.91,364.482 1185.5,363C 1197.16,362.5 1208.83,362.333 1220.5,362.5 Z M 1335.5,410.5 C 1336.08,409.227 1336.74,409.227 1337.5,410.5C 1337.03,411.463 1336.36,411.463 1335.5,410.5 Z M 1226.5,405.5 C 1223.98,405.755 1221.65,406.589 1219.5,408C 1214.94,411.293 1210.61,415.459 1206.5,420.5C 1207,421.521 1207.67,421.688 1208.5,421C 1214.4,415.594 1220.4,410.428 1226.5,405.5 Z M 1201.5,409.5 C 1198.77,410.713 1196.44,412.546 1194.5,415C 1193.56,415.692 1192.9,415.525 1192.5,414.5C 1196.73,410.371 1201.4,406.704 1206.5,403.5C 1206.83,403.833 1207.17,404.167 1207.5,404.5C 1205.47,406.175 1203.47,407.841 1201.5,409.5 Z M 1347.5,395.5 C 1349.83,395.5 1352.17,395.5 1354.5,395.5C 1353.22,396.931 1351.55,397.598 1349.5,397.5C 1342.99,397.868 1336.66,398.535 1330.5,399.5C 1327.45,399.889 1324.78,399.223 1322.5,397.5C 1330.86,397.355 1339.19,396.688 1347.5,395.5 Z"/></g>
<g><path style="opacity:0.122" fill="#79797a" d="M 1273.5,418.5 C 1270.92,420.472 1267.92,421.472 1264.5,421.5C 1267.22,419.928 1270.22,418.928 1273.5,418.5 Z"/></g>
<g><path style="opacity:0.024" fill="#555555" d="M 892.5,420.5 C 896.93,419.139 901.263,419.473 905.5,421.5C 901.176,421.073 896.842,420.739 892.5,420.5 Z"/></g>
<g><path style="opacity:0.145" fill="#757577" d="M 1231.5,416.5 C 1229.21,418.653 1226.54,420.32 1223.5,421.5C 1224.86,418.017 1227.53,416.35 1231.5,416.5 Z"/></g>
<g><path style="opacity:0.018" fill="#151515" d="M 1233.5,415.5 C 1234.21,414.596 1235.21,414.263 1236.5,414.5C 1236.74,415.791 1236.4,416.791 1235.5,417.5C 1235.5,416.167 1234.83,415.5 1233.5,415.5 Z"/></g>
<g><path style="opacity:0.027" fill="#818181" d="M 903.5,414.5 C 901.039,415.531 898.373,416.198 895.5,416.5C 897.635,414.631 900.302,413.964 903.5,414.5 Z"/></g>
<g><path style="opacity:0.271" fill="#a6a6a8" d="M 1201.5,409.5 C 1199.44,412.558 1196.78,414.891 1193.5,416.5C 1191.58,416.139 1191.25,415.472 1192.5,414.5C 1192.9,415.525 1193.56,415.692 1194.5,415C 1196.44,412.546 1198.77,410.713 1201.5,409.5 Z"/></g>
<g><path style="opacity:0.045" fill="#919191" d="M 903.5,414.5 C 906.482,413.835 909.648,413.502 913,413.5C 916.576,413.515 919.742,414.182 922.5,415.5C 916.203,414.68 909.869,414.347 903.5,414.5 Z"/></g>
<g><path style="opacity:0.617" fill="#9e9e9e" d="M 933.5,411.5 C 943.833,411.5 954.167,411.5 964.5,411.5C 966.5,411.5 968.5,411.5 970.5,411.5C 958.714,413.437 946.714,413.937 934.5,413C 933.944,412.617 933.611,412.117 933.5,411.5 Z"/></g>
<g><path style="opacity:0.051" fill="#555555" d="M 982.5,409.5 C 978.684,410.482 974.684,411.149 970.5,411.5C 968.5,411.5 966.5,411.5 964.5,411.5C 970.261,409.943 976.261,409.276 982.5,409.5 Z"/></g>
<g><path style="opacity:0.263" fill="#989898" d="M 925.5,401.5 C 928.156,404.794 930.822,408.127 933.5,411.5C 928.465,410.112 925.798,406.778 925.5,401.5 Z"/></g>
<g><path style="opacity:0.016" fill="#626262" d="M 1001.5,405.5 C 997.262,407.956 992.596,408.956 987.5,408.5C 991.973,407.133 996.64,406.133 1001.5,405.5 Z"/></g>
<g><path style="opacity:0.078" fill="#737373" d="M 1014.5,402.5 C 1010.59,404.876 1006.26,405.876 1001.5,405.5C 1005.59,403.925 1009.92,402.925 1014.5,402.5 Z"/></g>
<g><path style="opacity:0.059" fill="#000000" d="M 1227.5,403.5 C 1228.76,404.623 1228.42,405.289 1226.5,405.5C 1226.5,405.167 1226.5,404.833 1226.5,404.5C 1227.17,404.5 1227.5,404.167 1227.5,403.5 Z"/></g>
<g><path style="opacity:0.478" fill="#d3d3d4" d="M 1258.5,408.5 C 1256.74,407.448 1256.08,405.781 1256.5,403.5C 1250.16,403.666 1243.82,403.5 1237.5,403C 1236.03,402.29 1235.36,401.124 1235.5,399.5C 1232.83,399.5 1230.17,399.5 1227.5,399.5C 1231.59,396.415 1235.26,396.915 1238.5,401C 1243.83,401.333 1249.17,401.667 1254.5,402C 1258.03,402.672 1259.36,404.838 1258.5,408.5 Z"/></g>
<g><path style="opacity:0.106" fill="#5f5f5f" d="M 1035.5,398.5 C 1028.7,400.159 1021.7,401.492 1014.5,402.5C 1021.13,399.881 1028.13,398.547 1035.5,398.5 Z"/></g>
<g><path style="opacity:0.059" fill="#7c7f80" d="M 1349.5,397.5 C 1343.43,399.248 1337.09,399.915 1330.5,399.5C 1336.66,398.535 1342.99,397.868 1349.5,397.5 Z"/></g>
<g><path style="opacity:0.012" fill="#646464" d="M 919.5,395.5 C 922.522,396.522 924.522,398.522 925.5,401.5C 923.118,399.785 921.118,397.785 919.5,395.5 Z"/></g>
<g><path style="opacity:0.078" fill="#4b4b4b" d="M 1080.5,395.5 C 1071.9,397.471 1062.9,398.138 1053.5,397.5C 1062.37,396.781 1071.37,396.114 1080.5,395.5 Z"/></g>
<g><path style="opacity:0.008" fill="#7e7e7f" d="M 1347.5,395.5 C 1339.19,396.688 1330.86,397.355 1322.5,397.5C 1330.43,395.532 1338.77,394.865 1347.5,395.5 Z"/></g>
<g><path style="opacity:0.855" fill="#a9a9a9" d="M 1317.5,389.5 C 1317.83,389.5 1318.17,389.5 1318.5,389.5C 1318.84,392.729 1317.5,394.229 1314.5,394C 1313.56,391.619 1313.23,389.119 1313.5,386.5C 1310.78,386.614 1308.78,385.614 1307.5,383.5C 1312.27,383.175 1315.44,385.509 1317,390.5C 1317.4,390.272 1317.57,389.938 1317.5,389.5 Z"/></g>
<g><path style="opacity:0.055" fill="#5d5d5d" d="M 1334.5,386.5 C 1329.24,387.938 1323.91,388.938 1318.5,389.5C 1318.17,389.5 1317.83,389.5 1317.5,389.5C 1318.33,388.252 1319.67,387.585 1321.5,387.5C 1325.81,386.799 1330.14,386.466 1334.5,386.5 Z"/></g>
<g><path style="opacity:0.502" fill="#878787" d="M 1300.5,379.5 C 1303.32,380.23 1305.32,381.23 1306.5,382.5C 1303.92,382.975 1301.92,382.308 1300.5,380.5C 1300.5,380.167 1300.5,379.833 1300.5,379.5 Z"/></g>
<g><path style="opacity:0.184" fill="#a6a6a6" d="M 1223.5,421.5 C 1221.62,423.053 1220.62,425.053 1220.5,427.5C 1221.5,427.5 1222.5,427.5 1223.5,427.5C 1222.4,428.598 1221.07,428.765 1219.5,428C 1217.69,423.967 1219.02,421.8 1223.5,421.5 Z"/></g>
<g><path style="opacity:0.008" fill="#535355" d="M 1249.5,424.5 C 1248.71,426.104 1247.38,426.771 1245.5,426.5C 1246.51,425.326 1247.85,424.66 1249.5,424.5 Z"/></g>
<g><path style="opacity:0.094" fill="#8f8f8e" d="M 1350.5,423.5 C 1350.14,425.19 1349.14,426.19 1347.5,426.5C 1342.5,426.5 1337.5,426.5 1332.5,426.5C 1338.52,425.995 1344.52,424.995 1350.5,423.5 Z"/></g>
<g><path style="opacity:0.051" fill="#51656f" d="M 1391.5,426.5 C 1393.13,425.839 1394.97,425.506 1397,425.5C 1403.12,425.672 1408.96,426.672 1414.5,428.5C 1406.88,427.394 1399.21,426.727 1391.5,426.5 Z"/></g>
<g><path style="opacity:1" fill="#fcfdfd" d="M 870.5,430.5 C 873.647,432.313 875.647,434.98 876.5,438.5C 876.539,439.583 876.873,440.583 877.5,441.5C 876.5,442.333 875.5,443.167 874.5,444C 856.942,446.49 839.275,447.157 821.5,446C 819.212,445.178 816.878,444.511 814.5,444C 813.273,442.413 813.606,441.079 815.5,440C 825.328,437.374 834.994,434.54 844.5,431.5C 850.539,430.396 856.372,428.729 862,426.5C 865.141,427.132 867.974,428.465 870.5,430.5 Z"/></g>
<g><path style="opacity:0.11" fill="#787d77" d="M 882.5,422.5 C 882.253,424.858 882.919,426.858 884.5,428.5C 883.504,428.586 882.671,428.252 882,427.5C 879.919,425.443 880.086,423.777 882.5,422.5 Z"/></g>
<g><path style="opacity:0.071" fill="#8c8c8c" d="M 905.5,421.5 C 907.466,422.255 907.8,423.421 906.5,425C 902.088,425.788 897.921,427.288 894,429.5C 892.541,429.192 891.374,428.525 890.5,427.5C 893.271,427.579 895.937,427.079 898.5,426C 900.957,424.456 903.291,422.956 905.5,421.5 Z"/></g>
<g><path style="opacity:0.004" fill="#78787a" d="M 1294.5,427.5 C 1291.46,429.011 1288.12,429.678 1284.5,429.5C 1287.51,427.825 1290.84,427.159 1294.5,427.5 Z"/></g>
<g><path style="opacity:0.125" fill="#9babad" d="M 1391.5,426.5 C 1385.01,427.711 1378.68,429.711 1372.5,432.5C 1378.02,428.199 1384.35,426.199 1391.5,426.5 Z"/></g>
<g><path style="opacity:0.129" fill="#4c656a" d="M 1564.5,412.5 C 1563.5,412.5 1562.5,412.5 1561.5,412.5C 1559.45,410.962 1557.78,411.296 1556.5,413.5C 1557.8,417.099 1558.8,420.765 1559.5,424.5C 1559.01,427.661 1558.01,430.661 1556.5,433.5C 1556.17,433.5 1555.83,433.5 1555.5,433.5C 1556.23,430.377 1557.23,427.377 1558.5,424.5C 1556.86,420.283 1556.03,415.95 1556,411.5C 1559.06,410.216 1561.9,410.549 1564.5,412.5 Z"/></g>
<g><path style="opacity:0.618" fill="#b8b8b8" d="M 1023.5,432.5 C 998.686,430.792 974.02,430.459 949.5,431.5C 944.93,432.441 940.263,432.774 935.5,432.5C 937.223,431.2 939.39,430.533 942,430.5C 966.169,429.325 990.336,429.492 1014.5,431C 1017.69,431.181 1020.69,431.681 1023.5,432.5 Z"/></g>
<g><path style="opacity:0.051" fill="#525254" d="M 1245.5,426.5 C 1243.73,427.892 1241.73,429.059 1239.5,430C 1237.86,431.129 1236.86,432.629 1236.5,434.5C 1235.31,433.295 1235.31,431.961 1236.5,430.5C 1238.82,427.841 1241.82,426.508 1245.5,426.5 Z"/></g>
<g><path style="opacity:0.086" fill="#848484" d="M 922.5,429.5 C 920.383,431.655 917.716,432.655 914.5,432.5C 916.936,431.129 919.603,430.129 922.5,429.5 Z"/></g>
<g><path style="opacity:0.196" fill="#9d9d9f" d="M 1253.5,426.5 C 1251.57,430.484 1248.57,432.151 1244.5,431.5C 1247.33,429.583 1250.33,427.917 1253.5,426.5 Z"/></g>
<g><path style="opacity:0.004" fill="#575759" d="M 1276.5,431.5 C 1275.3,433.138 1273.96,433.471 1272.5,432.5C 1273.57,431.566 1274.9,431.232 1276.5,431.5 Z"/></g>
<g><path style="opacity:0.016" fill="#7c9291" d="M 1418.5,428.5 C 1426.79,429.322 1434.79,430.988 1442.5,433.5C 1434.25,432.463 1426.25,430.797 1418.5,428.5 Z"/></g>
<g><path style="opacity:0.078" fill="#545454" d="M 949.5,431.5 C 974.02,430.459 998.686,430.792 1023.5,432.5C 1024.49,432.328 1025.16,432.662 1025.5,433.5C 1000.17,432.652 974.839,431.985 949.5,431.5 Z"/></g>
<g><path style="opacity:0.055" fill="#949494" d="M 914.5,432.5 C 912.898,434.074 910.898,434.741 908.5,434.5C 910.102,432.926 912.102,432.259 914.5,432.5 Z"/></g>
<g><path style="opacity:0.153" fill="#939395" d="M 1296.5,430.5 C 1288.78,432.627 1281.12,434.96 1273.5,437.5C 1277.41,435.018 1281.75,433.185 1286.5,432C 1289.63,431.608 1292.63,430.775 1295.5,429.5C 1296.11,429.624 1296.44,429.957 1296.5,430.5 Z"/></g>
<g><path style="opacity:0.047" fill="#647e83" d="M 1442.5,433.5 C 1445.23,433.171 1447.56,433.837 1449.5,435.5C 1446.93,435.279 1444.6,434.612 1442.5,433.5 Z"/></g>
<g><path style="opacity:0.008" fill="#6b6b6b" d="M 1029.5,433.5 C 1034.82,434.029 1040.16,434.529 1045.5,435C 1047.07,435.608 1048.4,436.442 1049.5,437.5C 1042.66,436.381 1036,435.048 1029.5,433.5 Z"/></g>
<g><path style="opacity:0.263" fill="#adadaf" d="M 1236.5,430.5 C 1235.31,431.961 1235.31,433.295 1236.5,434.5C 1239.41,433.024 1242.08,432.024 1244.5,431.5C 1244.59,432.496 1244.25,433.329 1243.5,434C 1240.61,435.149 1237.61,435.649 1234.5,435.5C 1234.08,433.219 1234.74,431.552 1236.5,430.5 Z"/></g>
<g><path style="opacity:0.486" fill="#a4a4a4" d="M 888.5,432.5 C 890.332,434.894 892.832,435.894 896,435.5C 900.147,434.877 904.314,434.544 908.5,434.5C 902.091,436.266 895.424,436.932 888.5,436.5C 888.5,435.167 888.5,433.833 888.5,432.5 Z"/></g>
<g><path style="opacity:0.02" fill="#8c9da1" d="M 1578.5,416.5 C 1578.83,416.5 1579.17,416.5 1579.5,416.5C 1580.98,424.3 1579.48,431.967 1575,439.5C 1571.6,442.399 1568.76,445.733 1566.5,449.5C 1564.38,450.946 1562.05,451.613 1559.5,451.5C 1561.4,450.519 1563.4,449.519 1565.5,448.5C 1567.76,444.733 1570.6,441.399 1574,438.5C 1578,431.711 1579.5,424.377 1578.5,416.5 Z"/></g>
<g><path style="opacity:0.404" fill="#a2a2a2" d="M 922.5,436.5 C 922.5,437.167 922.5,437.833 922.5,438.5C 921.432,439.434 920.099,439.768 918.5,439.5C 917.167,439.5 915.833,439.5 914.5,439.5C 916.755,437.62 919.422,436.62 922.5,436.5 Z"/></g>
<g><path style="opacity:0.055" fill="#595959" d="M 932.5,433.5 C 929.511,435.661 926.178,437.328 922.5,438.5C 922.5,437.833 922.5,437.167 922.5,436.5C 925.703,435.155 929.036,434.155 932.5,433.5 Z"/></g>
<g><path style="opacity:0.02" fill="#516f72" d="M 1450.5,435.5 C 1454.4,436.055 1458.06,437.055 1461.5,438.5C 1457.43,438.568 1453.76,437.568 1450.5,435.5 Z"/></g>
<g><path style="opacity:0.047" fill="#6c6c6e" d="M 1268.5,434.5 C 1264.44,436.028 1260.44,437.861 1256.5,440C 1254.25,441.257 1252.92,443.09 1252.5,445.5C 1251.88,445.083 1251.54,444.416 1251.5,443.5C 1255.66,437.59 1261.32,434.59 1268.5,434.5 Z"/></g>
<g><path style="opacity:0.027" fill="#b2b2b3" d="M 1320.5,442.5 C 1322.66,441.531 1325,440.698 1327.5,440C 1325.53,439.505 1323.53,439.338 1321.5,439.5C 1322.15,438.275 1323.32,437.608 1325,437.5C 1328.94,437.095 1330.11,438.595 1328.5,442C 1325.85,442.497 1323.19,442.664 1320.5,442.5 Z"/></g>
<g><path style="opacity:0.047" fill="#655c60" d="M 1384.5,435.5 C 1397.67,435.473 1410.67,437.64 1423.5,442C 1424.31,443.113 1424.97,444.279 1425.5,445.5C 1422.19,444.002 1418.86,442.502 1415.5,441C 1405.27,438.453 1394.93,436.619 1384.5,435.5 Z"/></g>
<g><path style="opacity:0.008" fill="#6b6b6b" d="M 1049.5,437.5 C 1052.83,437.018 1055.5,438.018 1057.5,440.5C 1057.5,440.833 1057.5,441.167 1057.5,441.5C 1055.01,439.644 1052.34,438.31 1049.5,437.5 Z"/></g>
<g><path style="opacity:0.063" fill="#8da0a1" d="M 1555.5,433.5 C 1555.83,433.5 1556.17,433.5 1556.5,433.5C 1554.42,436.051 1551.76,437.884 1548.5,439C 1539.86,440.701 1531.19,440.701 1522.5,439C 1521.58,438.722 1520.92,438.222 1520.5,437.5C 1529.49,439.408 1538.49,439.575 1547.5,438C 1550.36,436.741 1553.02,435.241 1555.5,433.5 Z"/></g>
<g><path style="opacity:0.02" fill="#525254" d="M 1267.5,439.5 C 1264.65,441.093 1261.65,442.426 1258.5,443.5C 1261.11,440.679 1264.11,439.346 1267.5,439.5 Z"/></g>
<g><path style="opacity:0.012" fill="#6c6c6e" d="M 1313.5,440.5 C 1310.73,441.657 1307.73,442.324 1304.5,442.5C 1307.17,440.882 1310.17,440.215 1313.5,440.5 Z"/></g>
<g><path style="opacity:0.184" fill="#646464" d="M 914.5,439.5 C 915.833,439.5 917.167,439.5 918.5,439.5C 915.094,441.109 911.427,442.276 907.5,443C 899.484,444.173 891.484,444.34 883.5,443.5C 893.828,443.011 904.161,441.677 914.5,439.5 Z"/></g>
<g><path style="opacity:0.055" fill="#404040" d="M 1057.5,441.5 C 1057.83,441.5 1058.17,441.5 1058.5,441.5C 1060.15,441.66 1061.49,442.326 1062.5,443.5C 1060.45,443.598 1058.78,442.931 1057.5,441.5 Z"/></g>
<g><path style="opacity:0.012" fill="#616163" d="M 1304.5,442.5 C 1302.04,443.531 1299.37,444.198 1296.5,444.5C 1298.78,442.777 1301.45,442.111 1304.5,442.5 Z"/></g>
<g><path style="opacity:0.059" fill="#88a09f" d="M 1461.5,438.5 C 1473.7,441.467 1485.7,444.8 1497.5,448.5C 1485.07,446.289 1473.07,442.955 1461.5,438.5 Z"/></g>
<g><path style="opacity:0.008" fill="#464646" d="M 1062.5,443.5 C 1064.15,443.66 1065.49,444.326 1066.5,445.5C 1064.62,445.771 1063.29,445.104 1062.5,443.5 Z"/></g>
<g><path style="opacity:0.243" fill="#6f6f71" d="M 1258.5,443.5 C 1258.5,443.833 1258.5,444.167 1258.5,444.5C 1256.64,446.475 1254.64,446.808 1252.5,445.5C 1254.5,444.833 1256.5,444.167 1258.5,443.5 Z"/></g>
<g><path style="opacity:0.424" fill="#b0b0b2" d="M 1320.5,442.5 C 1314.02,445.869 1307.02,447.536 1299.5,447.5C 1301.92,446.589 1304.42,445.589 1307,444.5C 1307.77,444.645 1308.44,444.978 1309,445.5C 1312.59,443.583 1316.42,442.583 1320.5,442.5 Z"/></g>
<g><path style="opacity:0.013" fill="#c5ac58" d="M 1432.5,448.5 C 1432.17,448.5 1431.83,448.5 1431.5,448.5C 1431.28,447.325 1431.61,446.325 1432.5,445.5C 1433.56,446.425 1433.56,447.425 1432.5,448.5 Z"/></g>
<g><path style="opacity:0.149" fill="#6b8486" d="M 844.5,431.5 C 834.994,434.54 825.328,437.374 815.5,440C 813.606,441.079 813.273,442.413 814.5,444C 816.878,444.511 819.212,445.178 821.5,446C 839.275,447.157 856.942,446.49 874.5,444C 875.5,443.167 876.5,442.333 877.5,441.5C 876.873,440.583 876.539,439.583 876.5,438.5C 878.561,439.751 878.894,441.418 877.5,443.5C 874.721,445.614 871.721,446.281 868.5,445.5C 867.5,446 866.5,446.5 865.5,447C 850.5,447.667 835.5,447.667 820.5,447C 817.947,446.239 815.447,445.406 813,444.5C 811.144,442.263 811.644,440.429 814.5,439C 816.833,438 819.167,437 821.5,436C 829.331,435.14 836.998,433.64 844.5,431.5 Z"/></g>
<g><path style="opacity:0.024" fill="#c5ac58" d="M 1436.5,447.5 C 1435.83,446.167 1435.83,446.167 1436.5,447.5 Z"/></g>
<g><path style="opacity:0.024" fill="#6b6b6b" d="M 1066.5,445.5 C 1070.17,446.061 1073.17,447.728 1075.5,450.5C 1072.14,449.389 1069.14,447.723 1066.5,445.5 Z"/></g>
<g><path style="opacity:0.051" fill="#6d8687" d="M 1498.5,448.5 C 1509.59,450.717 1520.59,453.05 1531.5,455.5C 1531.26,456.097 1530.76,456.43 1530,456.5C 1525.17,455.708 1520.33,454.875 1515.5,454C 1514.75,452.513 1513.91,452.346 1513,453.5C 1507.96,452.139 1503.13,450.472 1498.5,448.5 Z"/></g>
<g><path style="opacity:0.282" fill="#9f9fa1" d="M 1291.5,445.5 C 1284.45,447.524 1277.45,450.024 1270.5,453C 1267.77,456.391 1268.44,457.558 1272.5,456.5C 1271.07,458.647 1269.23,458.98 1267,457.5C 1267.25,454.497 1267.92,451.497 1269,448.5C 1273.97,449.196 1278.8,448.363 1283.5,446C 1286.15,445.503 1288.81,445.336 1291.5,445.5 Z"/></g>
<g><path style="opacity:0.047" fill="#a7a39c" d="M 1436.5,447.5 C 1437.49,447.328 1438.16,447.662 1438.5,448.5C 1438.5,449.167 1438.5,449.833 1438.5,450.5C 1429.17,450.5 1419.83,450.5 1410.5,450.5C 1417.34,449.631 1424.34,448.964 1431.5,448.5C 1431.83,448.5 1432.17,448.5 1432.5,448.5C 1434.1,448.768 1435.43,448.434 1436.5,447.5 Z"/></g>
<g><path style="opacity:0.051" fill="#555557" d="M 1438.5,448.5 C 1448.08,450.458 1456.42,454.792 1463.5,461.5C 1462.02,461.762 1460.69,461.429 1459.5,460.5C 1456.22,457.91 1452.88,455.41 1449.5,453C 1445.99,451.438 1442.32,450.605 1438.5,450.5C 1438.5,449.833 1438.5,449.167 1438.5,448.5 Z"/></g>
<g><path style="opacity:0.012" fill="#405b5f" d="M 1559.5,451.5 C 1559.05,452.458 1558.38,453.292 1557.5,454C 1551.64,454.647 1545.81,455.48 1540,456.5C 1538.93,456.472 1538.1,456.139 1537.5,455.5C 1545.05,454.812 1552.38,453.479 1559.5,451.5 Z"/></g>
<g><path style="opacity:0.176" fill="#828282" d="M 1076.5,450.5 C 1078.95,450.321 1081.12,450.987 1083,452.5C 1087.18,455.16 1091.02,458.16 1094.5,461.5C 1087.82,458.834 1081.82,455.167 1076.5,450.5 Z"/></g>
<g><path style="opacity:0.012" fill="#616161" d="M 1094.5,461.5 C 1097.08,461.455 1099.08,462.455 1100.5,464.5C 1098.03,464.346 1096.03,463.346 1094.5,461.5 Z"/></g>
<g><path style="opacity:0.016" fill="#494949" d="M 1463.5,461.5 C 1467.27,463.192 1467.27,464.525 1463.5,465.5C 1463.5,464.167 1463.5,462.833 1463.5,461.5 Z"/></g>
<g><path style="opacity:0.22" fill="#979798" d="M 1303.5,462.5 C 1298.91,463.419 1294.24,465.086 1289.5,467.5C 1288.54,467.953 1287.71,468.619 1287,469.5C 1285.61,468.185 1284.61,468.519 1284,470.5C 1283.33,469.748 1282.5,469.414 1281.5,469.5C 1288.23,465.593 1295.56,463.259 1303.5,462.5 Z"/></g>
<g><path style="opacity:0.039" fill="#000000" d="M 1431.5,464.5 C 1433.5,464.5 1435.5,464.5 1437.5,464.5C 1441.63,465.485 1445.97,465.818 1450.5,465.5C 1450.5,465.833 1450.5,466.167 1450.5,466.5C 1443.91,466.915 1437.57,466.248 1431.5,464.5 Z"/></g>
<g><path style="opacity:0.039" fill="#787878" d="M 1100.5,464.5 C 1103.31,464.025 1105.31,465.025 1106.5,467.5C 1103.91,467.539 1101.91,466.539 1100.5,464.5 Z"/></g>
<g><path style="opacity:0.999" fill="#fefefe" d="M 343.5,550.5 C 343.103,549.475 342.437,549.308 341.5,550C 340,551.5 338.5,553 337,554.5C 333.658,560.154 329.991,565.488 326,570.5C 321.739,572.584 319.239,575.918 318.5,580.5C 318.262,582.404 317.262,583.738 315.5,584.5C 312.453,586.918 310.12,589.918 308.5,593.5C 308.672,594.492 308.338,595.158 307.5,595.5C 307.103,594.475 306.437,594.308 305.5,595C 303.904,598.048 301.737,600.548 299,602.5C 297.702,603.946 297.535,605.279 298.5,606.5C 288.096,620.808 277.096,634.641 265.5,648C 279.226,649.591 292.892,651.591 306.5,654C 326.14,659.936 345.806,665.769 365.5,671.5C 363.248,657.108 366.414,644.108 375,632.5C 401.359,603.737 433.526,584.904 471.5,576C 480.261,574.363 487.427,576.863 493,583.5C 496.052,591.047 494.219,597.047 487.5,601.5C 491.479,607.046 492.313,613.046 490,619.5C 482.696,630.146 475.363,640.812 468,651.5C 464.287,656.632 462.62,662.299 463,668.5C 466.312,673.702 470.812,674.869 476.5,672C 487.313,664.344 497.647,656.177 507.5,647.5C 509.046,648.212 510.046,649.378 510.5,651C 509.77,654.794 509.27,658.627 509,662.5C 499.83,672.003 490.33,681.17 480.5,690C 471.988,697.507 462.654,703.84 452.5,709C 446.63,711.429 441.13,710.929 436,707.5C 432.85,701.524 431.85,695.19 433,688.5C 434.264,680.11 436.764,672.11 440.5,664.5C 440.167,664.167 439.833,663.833 439.5,663.5C 429.965,671.872 420.632,680.372 411.5,689C 404.266,695.116 396.266,699.95 387.5,703.5C 376.957,701.292 370.291,694.958 367.5,684.5C 361.635,690.199 356.302,696.365 351.5,703C 342.698,710.034 332.698,712.701 321.5,711C 302.78,706.79 284.114,702.457 265.5,698C 247.362,694.048 229.029,692.381 210.5,693C 202.097,698.756 192.93,702.589 183,704.5C 177.725,704.468 174.559,701.968 173.5,697C 178.84,680.996 187.507,666.996 199.5,655C 202.674,653.275 206.007,651.942 209.5,651C 219.106,649.248 228.773,647.914 238.5,647C 258.626,621.856 278.459,596.356 298,570.5C 312.659,552.506 327.326,534.506 342,516.5C 357.98,498.846 375.48,483.013 394.5,469C 402.572,465.144 409.072,466.977 414,474.5C 415.962,483.158 415.962,491.825 414,500.5C 410.703,508.48 407.37,516.48 404,524.5C 395.763,538.923 387.263,553.257 378.5,567.5C 382.206,571.134 382.373,575.134 379,579.5C 369.381,591.456 358.215,601.623 345.5,610C 338.478,614.601 333.478,613.101 330.5,605.5C 331.427,595.125 333.927,585.125 338,575.5C 348.72,555.227 361.553,536.394 376.5,519C 375.5,518.333 374.5,518.333 373.5,519C 362.948,529.05 352.948,539.55 343.5,550.5 Z M 458.5,612.5 C 460.028,612.517 460.528,613.184 460,614.5C 446.114,629.385 431.947,643.885 417.5,658C 411.028,663.736 404.028,668.736 396.5,673C 393.901,673.769 391.401,673.602 389,672.5C 388.038,660.472 392.205,650.638 401.5,643C 419.109,630.196 438.109,620.029 458.5,612.5 Z"/></g>
<g><path style="opacity:0.02" fill="#252526" d="M 1450.5,466.5 C 1450.83,466.5 1451.17,466.5 1451.5,466.5C 1451.5,467.833 1450.83,468.5 1449.5,468.5C 1449.83,467.833 1450.17,467.167 1450.5,466.5 Z"/></g>
<g><path style="opacity:0.008" fill="#5e5e5e" d="M 1106.5,467.5 C 1107.61,467.557 1108.61,467.89 1109.5,468.5C 1109.5,468.833 1109.5,469.167 1109.5,469.5C 1107.97,469.573 1106.97,468.906 1106.5,467.5 Z"/></g>
<g><path style="opacity:0.004" fill="#39393a" d="M 1289.5,467.5 C 1290.49,467.328 1291.16,467.662 1291.5,468.5C 1291.5,469.167 1291.17,469.5 1290.5,469.5C 1289.66,469.158 1289.33,468.492 1289.5,467.5 Z"/></g>
<g><path style="opacity:0.012" fill="#4c4c4e" d="M 1378.5,467.5 C 1382.83,467.5 1387.17,467.5 1391.5,467.5C 1381.77,469.182 1372.1,470.182 1362.5,470.5C 1367.83,469.5 1373.17,468.5 1378.5,467.5 Z"/></g>
<g><path style="opacity:0.02" fill="#6b6b6b" d="M 1109.5,469.5 C 1109.83,469.5 1110.17,469.5 1110.5,469.5C 1114.27,469.884 1117.27,471.55 1119.5,474.5C 1115.95,473.209 1112.61,471.542 1109.5,469.5 Z"/></g>
<g><path style="opacity:0.012" fill="#484848" d="M 1459.5,468.5 C 1463.85,468.765 1468.19,469.265 1472.5,470C 1473.38,470.708 1474.05,471.542 1474.5,472.5C 1469.41,471.164 1464.41,469.831 1459.5,468.5 Z"/></g>
<g><path style="opacity:0.998" fill="#fefefe" d="M 788.5,471.5 C 796.061,471.093 800.061,474.593 800.5,482C 800.012,488.412 798.512,494.579 796,500.5C 781.155,527.739 766.322,554.905 751.5,582C 751.833,582.5 752.167,583 752.5,583.5C 759.185,582.134 765.852,582.3 772.5,584C 773.517,585.049 773.684,586.216 773,587.5C 763.922,598.902 756.089,611.068 749.5,624C 741.529,625.126 733.529,625.959 725.5,626.5C 720.192,637.783 714.358,648.783 708,659.5C 706.078,662.856 706.245,666.022 708.5,669C 709.833,669.667 711.167,669.667 712.5,669C 720.596,664.226 728.096,658.726 735,652.5C 737.117,654.032 738.784,656.032 740,658.5C 740.667,659.833 740.667,661.167 740,662.5C 727.678,677.494 713.512,690.328 697.5,701C 673.349,711.176 663.182,703.343 667,677.5C 672.963,661.055 680.463,645.388 689.5,630.5C 670.155,629.758 650.822,630.258 631.5,632C 608.784,656.06 586.284,680.56 564,705.5C 557.438,712.739 549.771,718.405 541,722.5C 529.137,722.356 525.804,716.689 531,705.5C 540.755,690.415 552.588,677.248 566.5,666C 570.941,663.228 575.608,660.894 580.5,659C 588.394,650.942 595.727,642.442 602.5,633.5C 602.291,632.914 601.957,632.414 601.5,632C 597.476,631.391 593.476,631.558 589.5,632.5C 583.378,632.797 580.378,629.964 580.5,624C 580.578,618.763 582.411,614.263 586,610.5C 596.239,599.785 607.406,590.285 619.5,582C 625.883,580.019 632.383,578.519 639,577.5C 641.814,577.408 644.147,578.408 646,580.5C 646.388,582.076 645.888,583.409 644.5,584.5C 639.678,586.305 634.678,587.472 629.5,588C 624.786,589.056 624.453,590.723 628.5,593C 633.975,593.456 639.308,592.789 644.5,591C 672.889,563.644 701.889,536.977 731.5,511C 746.741,498.59 762.408,486.757 778.5,475.5C 782.067,474.457 785.4,473.123 788.5,471.5 Z M 753.5,516.5 C 755.028,516.517 755.528,517.184 755,518.5C 742.531,540.612 729.698,562.446 716.5,584C 704.367,585.518 692.2,586.684 680,587.5C 679.5,587.167 679,586.833 678.5,586.5C 691.265,573.234 704.265,560.068 717.5,547C 729.723,536.932 741.723,526.765 753.5,516.5 Z"/></g>
<g><path style="opacity:0.031" fill="#989899" d="M 1361.5,470.5 C 1360.12,471.234 1358.62,471.901 1357,472.5C 1354.38,472.296 1351.55,472.296 1348.5,472.5C 1352.59,471.105 1356.92,470.438 1361.5,470.5 Z"/></g>
<g><path style="opacity:0.055" fill="#8b8b8d" d="M 1370.5,474.5 C 1366.79,476.136 1362.79,476.802 1358.5,476.5C 1362.21,474.864 1366.21,474.198 1370.5,474.5 Z"/></g>
<g><path style="opacity:0.367" fill="#afafaf" d="M 1125.5,476.5 C 1132.46,477.382 1139.13,479.049 1145.5,481.5C 1138.27,481.593 1131.6,479.926 1125.5,476.5 Z"/></g>
<g><path style="opacity:0.067" fill="#aaaaaa" d="M 1172.5,487.5 C 1170.86,487.19 1169.86,486.19 1169.5,484.5C 1168.83,483.167 1167.83,482.167 1166.5,481.5C 1165.9,480.1 1164.9,479.1 1163.5,478.5C 1163.17,478.5 1162.83,478.5 1162.5,478.5C 1163.2,476.656 1164.54,476.156 1166.5,477C 1168.72,480.385 1170.72,483.885 1172.5,487.5 Z"/></g>
<g><path style="opacity:0.122" fill="#a9a9ab" d="M 1328.5,476.5 C 1327.48,477.954 1326.31,478.287 1325,477.5C 1321.28,478.648 1317.45,479.314 1313.5,479.5C 1318.17,477.421 1323.17,476.421 1328.5,476.5 Z"/></g>
<g><path style="opacity:0.031" fill="#6c6c6c" d="M 1478.5,474.5 C 1480.88,476.878 1482.88,479.545 1484.5,482.5C 1482.83,480.998 1480.99,479.665 1479,478.5C 1478.51,477.207 1478.34,475.873 1478.5,474.5 Z"/></g>
<g><path style="opacity:0.145" fill="#98989a" d="M 1313.5,479.5 C 1310.75,480.946 1307.75,481.946 1304.5,482.5C 1304.79,481.351 1305.62,480.684 1307,480.5C 1309.14,479.923 1311.3,479.59 1313.5,479.5 Z"/></g>
<g><path style="opacity:0.006" fill="#4b4b4b" d="M 1162.5,478.5 C 1162.83,478.5 1163.17,478.5 1163.5,478.5C 1162.66,482.191 1160.66,483.191 1157.5,481.5C 1159.96,481.69 1161.63,480.69 1162.5,478.5 Z"/></g>
<g><path style="opacity:0.255" fill="#9c9c9d" d="M 1357.5,476.5 C 1341.65,481.206 1325.32,484.872 1308.5,487.5C 1315.09,486.178 1321.59,484.178 1328,481.5C 1328.87,481.735 1329.71,482.069 1330.5,482.5C 1332.75,480.313 1335.25,479.647 1338,480.5C 1339.44,478.986 1340.94,478.653 1342.5,479.5C 1347.7,477.983 1352.7,476.983 1357.5,476.5 Z"/></g>
<g><path style="opacity:0.024" fill="#414141" d="M 1166.5,481.5 C 1167.83,482.167 1168.83,483.167 1169.5,484.5C 1167.5,484.5 1166.5,483.5 1166.5,481.5 Z"/></g>
<g><path style="opacity:0.125" fill="#525252" d="M 1484.5,482.5 C 1487.59,486.129 1486.93,488.795 1482.5,490.5C 1482.5,490.167 1482.5,489.833 1482.5,489.5C 1483.12,489.389 1483.62,489.056 1484,488.5C 1484.5,486.527 1484.66,484.527 1484.5,482.5 Z"/></g>
<g><path style="opacity:0.008" fill="#3e3e3e" d="M 1172.5,487.5 C 1174.5,488.833 1176.17,490.5 1177.5,492.5C 1174.83,491.833 1173.17,490.167 1172.5,487.5 Z"/></g>
<g><path style="opacity:0.115" fill="#a3a3a4" d="M 1423.5,490.5 C 1442.99,489.503 1462.66,489.17 1482.5,489.5C 1482.5,489.833 1482.5,490.167 1482.5,490.5C 1467.8,490.76 1452.8,490.76 1437.5,490.5C 1432.83,490.5 1428.17,490.5 1423.5,490.5 Z"/></g>
<g><path style="opacity:0.088" fill="#aaaaac" d="M 1409.5,490.5 C 1409.16,491.338 1408.49,491.672 1407.5,491.5C 1399.38,491.89 1391.38,492.223 1383.5,492.5C 1391.77,490.53 1400.44,489.864 1409.5,490.5 Z"/></g>
<g><path style="opacity:0.075" fill="#626264" d="M 1409.5,490.5 C 1414.17,490.5 1418.83,490.5 1423.5,490.5C 1428.17,490.5 1432.83,490.5 1437.5,490.5C 1428.14,491.203 1418.64,491.87 1409,492.5C 1408.24,492.43 1407.74,492.097 1407.5,491.5C 1408.49,491.672 1409.16,491.338 1409.5,490.5 Z"/></g>
<g><path style="opacity:0.082" fill="#626262" d="M 1177.5,492.5 C 1179.75,493.08 1181.42,494.413 1182.5,496.5C 1180.25,495.92 1178.58,494.587 1177.5,492.5 Z"/></g>
<g><path style="opacity:0.045" fill="#9d9d9f" d="M 1370.5,493.5 C 1364.24,494.318 1357.91,495.318 1351.5,496.5C 1353.15,495.073 1355.15,494.24 1357.5,494C 1361.82,493.501 1366.15,493.334 1370.5,493.5 Z"/></g>
<g><path style="opacity:0.004" fill="#464648" d="M 1343.5,497.5 C 1339.79,499.136 1335.79,499.802 1331.5,499.5C 1331.5,499.167 1331.5,498.833 1331.5,498.5C 1335.52,498.354 1339.52,498.021 1343.5,497.5 Z"/></g>
<g><path style="opacity:0.708" fill="#adadae" d="M 1331.5,498.5 C 1331.5,498.833 1331.5,499.167 1331.5,499.5C 1324.51,500.072 1317.68,501.406 1311,503.5C 1310.24,503.43 1309.74,503.097 1309.5,502.5C 1316.5,499.704 1323.84,498.371 1331.5,498.5 Z"/></g>
<g><path style="opacity:0.051" fill="#4d4d4d" d="M 1187.5,499.5 C 1189.15,499.66 1190.49,500.326 1191.5,501.5C 1189.62,501.771 1188.29,501.104 1187.5,499.5 Z"/></g>
<g><path style="opacity:0.302" fill="#9b9b9b" d="M 1289.5,505.5 C 1287.24,504.419 1285.07,503.085 1283,501.5C 1282.36,504.601 1281.2,507.268 1279.5,509.5C 1279.34,507.143 1279.5,504.81 1280,502.5C 1284.44,499.291 1287.61,500.291 1289.5,505.5 Z"/></g>
<g><path style="opacity:0.043" fill="#818181" d="M 1191.5,501.5 C 1197.92,503.531 1204.26,505.531 1210.5,507.5C 1203.51,507.832 1197.18,505.832 1191.5,501.5 Z"/></g>
<g><path style="opacity:0.024" fill="#818181" d="M 1308.5,502.5 C 1304.58,503.897 1300.58,505.397 1296.5,507C 1295.33,507.167 1294.17,507.333 1293,507.5C 1291.32,507.392 1290.15,506.725 1289.5,505.5C 1295.85,504.629 1302.19,503.629 1308.5,502.5 Z"/></g>
<g><path style="opacity:0.314" fill="#808080" d="M 1210.5,507.5 C 1218.82,508.355 1227.15,509.021 1235.5,509.5C 1239.45,510.272 1243.45,510.605 1247.5,510.5C 1240.68,511.655 1233.68,511.821 1226.5,511C 1222.78,510.96 1219.11,510.127 1215.5,508.5C 1213.38,510.009 1211.71,509.676 1210.5,507.5 Z"/></g>
<g><path style="opacity:0.126" fill="#606060" d="M 1249.5,510.5 C 1258.83,510.5 1268.17,510.5 1277.5,510.5C 1273.18,511.389 1268.68,512.056 1264,512.5C 1260.6,511.477 1257.26,511.477 1254,512.5C 1252.38,511.901 1250.88,511.234 1249.5,510.5 Z"/></g>
<g><path style="opacity:0.999" fill="#fdfdfe" d="M 1304.5,531.5 C 1318.69,530.252 1322.53,535.919 1316,548.5C 1314.03,551.968 1311.86,555.301 1309.5,558.5C 1313.82,559.608 1318.15,560.608 1322.5,561.5C 1323.61,562.723 1323.78,564.056 1323,565.5C 1318.87,571.422 1315.54,577.756 1313,584.5C 1310.28,589.504 1307.12,594.171 1303.5,598.5C 1300.18,600.752 1296.51,602.252 1292.5,603C 1286.45,603.26 1280.45,603.927 1274.5,605C 1262.58,620.669 1253.08,637.836 1246,656.5C 1239.99,678.504 1246.82,684.004 1266.5,673C 1276.19,665.971 1285.85,658.971 1295.5,652C 1299.44,642.092 1303.61,632.258 1308,622.5C 1312.09,615.993 1316.42,609.66 1321,603.5C 1329.28,594.542 1339.11,588.042 1350.5,584C 1355.26,583.19 1359.92,583.524 1364.5,585C 1368.2,588.396 1369.37,592.563 1368,597.5C 1366,601.5 1364,605.5 1362,609.5C 1349.31,624.184 1336.31,638.517 1323,652.5C 1319.51,664.198 1323.68,671.198 1335.5,673.5C 1348.54,669.606 1360.2,663.273 1370.5,654.5C 1375.98,635.195 1385.15,617.861 1398,602.5C 1402.92,597.244 1408.42,592.744 1414.5,589C 1421.57,587.116 1428.57,587.45 1435.5,590C 1438.15,596.763 1436.98,602.93 1432,608.5C 1422,619.833 1412,631.167 1402,642.5C 1400.68,645.477 1399.18,648.31 1397.5,651C 1398.03,651.692 1398.69,652.192 1399.5,652.5C 1406.61,647.745 1412.45,641.745 1417,634.5C 1433.18,619.325 1449.68,604.492 1466.5,590C 1473.69,584.241 1481.35,579.241 1489.5,575C 1491.92,574.313 1494.09,574.813 1496,576.5C 1499.98,585.08 1501.65,594.08 1501,603.5C 1500.44,605.725 1499.44,607.725 1498,609.5C 1491.06,617.729 1483.89,625.729 1476.5,633.5C 1471.58,639.662 1467.42,646.329 1464,653.5C 1462.68,657.428 1462.34,661.428 1463,665.5C 1464.62,667.547 1466.79,668.547 1469.5,668.5C 1479.67,665.75 1488.67,660.917 1496.5,654C 1502.61,637.869 1512.61,624.536 1526.5,614C 1547.92,596.955 1571.92,584.621 1598.5,577C 1608.43,573.546 1617.09,575.38 1624.5,582.5C 1628.99,590.391 1627.32,596.557 1619.5,601C 1624.81,609.424 1624.64,617.924 1619,626.5C 1610.09,636.661 1602.42,647.661 1596,659.5C 1593.44,669.604 1597.28,674.104 1607.5,673C 1618.84,665.424 1629.67,657.258 1640,648.5C 1640.77,648.645 1641.44,648.978 1642,649.5C 1641.93,653.223 1642.09,656.89 1642.5,660.5C 1641.85,663.655 1640.18,666.155 1637.5,668C 1623.29,680.384 1608.96,692.55 1594.5,704.5C 1571.18,716.703 1561.68,709.703 1566,683.5C 1568.5,676.479 1570.83,669.479 1573,662.5C 1558.34,676.936 1542.51,690.103 1525.5,702C 1517.27,704.032 1510.43,701.866 1505,695.5C 1501.19,687.563 1498.69,679.23 1497.5,670.5C 1486.21,680.96 1474.21,690.46 1461.5,699C 1454.94,702.796 1447.94,705.296 1440.5,706.5C 1435.11,705.723 1430.94,703.056 1428,698.5C 1424.53,686.497 1425.53,674.831 1431,663.5C 1436.21,654.125 1441.21,644.792 1446,635.5C 1428.82,651.608 1413.49,669.275 1400,688.5C 1396.47,692.369 1392.63,695.869 1388.5,699C 1379.88,701.918 1374.38,699.084 1372,690.5C 1371.66,684.461 1371,678.461 1370,672.5C 1360.79,680.711 1351.29,688.544 1341.5,696C 1311.75,712.866 1296.25,704.032 1295,669.5C 1282.07,680.702 1268.9,691.536 1255.5,702C 1247.97,706.431 1239.97,709.765 1231.5,712C 1216.91,714.742 1209.58,708.742 1209.5,694C 1209.84,688.099 1210.68,682.265 1212,676.5C 1214.57,669.129 1216.9,661.796 1219,654.5C 1201.3,673.196 1181.46,689.362 1159.5,703C 1141.37,710.941 1131.7,705.107 1130.5,685.5C 1132.87,668.432 1139.37,653.099 1150,639.5C 1150.98,638.241 1151.32,636.908 1151,635.5C 1133.86,651.639 1118.52,669.305 1105,688.5C 1101.47,692.369 1097.63,695.869 1093.5,699C 1087.92,700.472 1083.09,699.305 1079,695.5C 1076.56,688.267 1074.9,680.934 1074,673.5C 1064.86,679.982 1056.02,686.815 1047.5,694C 1041.29,697.603 1034.96,700.936 1028.5,704C 998.46,712.739 982.293,701.572 980,670.5C 963.888,682.995 947.388,695.162 930.5,707C 924.223,713.717 919.056,721.217 915,729.5C 906.667,740.833 898.333,752.167 890,763.5C 883.764,770.407 876.931,776.573 869.5,782C 849.268,791.102 843.435,785.268 852,764.5C 857.674,754.497 864.341,745.163 872,736.5C 884.852,723.113 898.352,710.446 912.5,698.5C 918.736,687.03 924.736,675.364 930.5,663.5C 929.998,662.479 929.332,662.312 928.5,663C 916.208,675.965 902.208,686.632 886.5,695C 871.166,697.859 862.833,691.359 861.5,675.5C 860.448,675.351 859.448,675.517 858.5,676C 847.267,686.575 834.933,695.575 821.5,703C 807.824,707.58 798.991,703.08 795,689.5C 793.294,674.324 796.627,660.324 805,647.5C 810.468,639.399 816.301,631.566 822.5,624C 813.765,625.349 805.099,627.349 796.5,630C 788.115,639.383 779.448,648.383 770.5,657C 767.565,658.715 764.732,660.548 762,662.5C 761.055,662.095 760.388,661.428 760,660.5C 759.901,656.091 760.568,651.758 762,647.5C 767.194,642.306 772.36,637.14 777.5,632C 772.798,629.571 770.965,625.738 772,620.5C 777.344,601.157 788.178,585.657 804.5,574C 811.363,569.716 816.029,571.216 818.5,578.5C 817.626,580.747 817.292,583.08 817.5,585.5C 828.565,584.3 839.565,582.633 850.5,580.5C 857.904,581.405 862.737,585.405 865,592.5C 866.356,599.576 865.356,606.243 862,612.5C 856.052,620.15 849.385,627.15 842,633.5C 838,639.5 834,645.5 830,651.5C 824.13,665.418 828.297,670.585 842.5,667C 846.706,664.398 851.039,662.064 855.5,660C 857.228,658.027 859.061,656.194 861,654.5C 865.655,632.528 876.821,614.694 894.5,601C 909.648,590.76 925.648,582.093 942.5,575C 951.019,571.904 958.519,573.404 965,579.5C 965.667,581.833 965.667,584.167 965,586.5C 963.26,587.716 962.26,589.382 962,591.5C 958.87,593.628 956.037,596.128 953.5,599C 938.965,608.182 924.299,617.182 909.5,626C 897.411,632.754 888.911,642.587 884,655.5C 883.064,659.114 882.564,662.78 882.5,666.5C 886.514,666.666 890.514,666.499 894.5,666C 899.603,663.737 904.603,661.237 909.5,658.5C 927.768,640.991 943.935,621.657 958,600.5C 968.563,592.526 974.729,595.193 976.5,608.5C 975.789,618.468 972.955,627.801 968,636.5C 961.246,648.34 954.746,660.34 948.5,672.5C 949.002,673.521 949.668,673.688 950.5,673C 958.27,667.607 966.27,662.44 974.5,657.5C 977.124,655.378 979.624,653.045 982,650.5C 990.086,621.439 1006.59,598.606 1031.5,582C 1037.05,580.11 1042.38,577.777 1047.5,575C 1057.45,572.314 1067.45,571.981 1077.5,574C 1081.12,577.279 1083.46,581.279 1084.5,586C 1083.68,593.118 1081.85,599.951 1079,606.5C 1073,616.074 1065.5,624.241 1056.5,631C 1042.19,639.442 1027.36,646.942 1012,653.5C 1010.62,660.538 1011.79,667.038 1015.5,673C 1023.67,675.97 1032.01,676.303 1040.5,674C 1053.91,668.921 1066.08,661.754 1077,652.5C 1083.11,629.841 1094.61,610.341 1111.5,594C 1120.37,587.357 1130.03,586.024 1140.5,590C 1142.39,592.917 1142.89,596.084 1142,599.5C 1140.5,603.165 1138.5,606.498 1136,609.5C 1126.47,619.612 1117.14,629.945 1108,640.5C 1104.43,644.279 1103.26,648.613 1104.5,653.5C 1128.05,627.447 1153.72,603.614 1181.5,582C 1184.5,580.834 1187.17,579.167 1189.5,577C 1192.17,576.166 1194.84,575.332 1197.5,574.5C 1200.65,576.79 1202.81,579.79 1204,583.5C 1205.8,590.071 1206.46,596.738 1206,603.5C 1199.86,613.323 1192.53,622.323 1184,630.5C 1179.61,635.889 1175.61,641.556 1172,647.5C 1162.66,667.154 1167.82,672.654 1187.5,664C 1192.17,660.667 1196.83,657.333 1201.5,654C 1214.05,642.447 1226.22,630.614 1238,618.5C 1240.53,613.273 1243.7,608.439 1247.5,604C 1246.06,602.936 1244.39,602.436 1242.5,602.5C 1237.16,603.094 1231.82,603.76 1226.5,604.5C 1224.71,604.304 1223.38,603.471 1222.5,602C 1228.97,590.375 1236.63,579.709 1245.5,570C 1255.39,564.36 1266.05,561.193 1277.5,560.5C 1282.34,552.812 1287.68,545.479 1293.5,538.5C 1296.96,535.68 1300.63,533.347 1304.5,531.5 Z M 1054.5,593.5 C 1055.5,593.414 1056.33,593.748 1057,594.5C 1056.87,600.757 1054.54,606.09 1050,610.5C 1040.39,619.831 1029.55,626.998 1017.5,632C 1025.71,614.959 1038.05,602.126 1054.5,593.5 Z M 1591.5,612.5 C 1592.38,612.369 1593.04,612.702 1593.5,613.5C 1579.6,629.232 1564.93,644.065 1549.5,658C 1543.64,662.692 1537.64,667.192 1531.5,671.5C 1528.36,673.09 1525.19,673.424 1522,672.5C 1520.69,662.3 1523.52,653.467 1530.5,646C 1549.15,631.675 1569.49,620.508 1591.5,612.5 Z"/></g>
<g><path style="opacity:1" fill="#fcfdfe" d="M 1384.5,535.5 C 1395.39,535.884 1399.56,541.551 1397,552.5C 1394.63,563.197 1388.79,571.363 1379.5,577C 1375.26,578.457 1370.93,578.791 1366.5,578C 1363.86,576.039 1362.03,573.539 1361,570.5C 1359.88,552.734 1367.71,541.068 1384.5,535.5 Z"/></g>
<g><path style="opacity:0.855" fill="#d6dce8" d="M 343.5,550.5 C 335.461,560.861 327.128,570.861 318.5,580.5C 319.239,575.918 321.739,572.584 326,570.5C 329.991,565.488 333.658,560.154 337,554.5C 338.5,553 340,551.5 341.5,550C 342.437,549.308 343.103,549.475 343.5,550.5 Z"/></g>
<g><path style="opacity:0.012" fill="#f4f7dc" d="M 303.5,554.5 C 305.337,554.639 305.67,555.306 304.5,556.5C 303.702,556.043 303.369,555.376 303.5,554.5 Z"/></g>
<g><path style="opacity:0.231" fill="#b7c3df" d="M 315.5,584.5 C 314.25,588.408 311.917,591.408 308.5,593.5C 310.12,589.918 312.453,586.918 315.5,584.5 Z"/></g>
<g><path style="opacity:0.231" fill="#aebad0" d="M 307.5,595.5 C 304.848,599.482 301.848,603.149 298.5,606.5C 297.535,605.279 297.702,603.946 299,602.5C 301.737,600.548 303.904,598.048 305.5,595C 306.437,594.308 307.103,594.475 307.5,595.5 Z"/></g>
<g><path style="opacity:0.031" fill="#e8edd9" d="M 1143.5,604.5 C 1144.83,605.167 1144.83,605.167 1143.5,604.5 Z"/></g>
<g><path style="opacity:0.031" fill="#e3efd8" d="M 1372.5,634.5 C 1372.9,633.475 1373.56,633.308 1374.5,634C 1373.91,634.464 1373.24,634.631 1372.5,634.5 Z"/></g>
<g><path style="opacity:0.024" fill="#daeae2" d="M 1644.5,657.5 C 1645.83,658.167 1645.83,658.167 1644.5,657.5 Z"/></g>
<g><path style="opacity:0.012" fill="#ecf6dc" d="M 568.5,659.5 C 569.833,660.167 569.833,660.167 568.5,659.5 Z"/></g>
<g><path style="opacity:0.031" fill="#eef5db" d="M 568.5,660.5 C 568.103,661.525 567.437,661.692 566.5,661C 567.094,660.536 567.761,660.369 568.5,660.5 Z"/></g>
<g><path style="opacity:0.031" fill="#f6f7d8" d="M 1329.5,658.5 C 1330.78,659.386 1330.78,660.386 1329.5,661.5C 1328.44,660.575 1328.44,659.575 1329.5,658.5 Z"/></g>
<g><path style="opacity:0.19" fill="#3953a6" d="M 169.5,678.5 C 170.643,681.976 170.81,685.642 170,689.5C 168.178,685.897 168.011,682.23 169.5,678.5 Z"/></g>
</svg>
