<?xml version="1.0" standalone="no"?>
<!DOCTYPE svg PUBLIC "-//W3C//DTD SVG 20010904//EN"
 "http://www.w3.org/TR/2001/REC-SVG-20010904/DTD/svg10.dtd">
<svg version="1.0" xmlns="http://www.w3.org/2000/svg"
 width="1920.000000pt" height="1080.000000pt" viewBox="0 0 1920.000000 1080.000000"
 preserveAspectRatio="xMidYMid meet">

<g transform="translate(0.000000,1080.000000) scale(0.100000,-0.100000)"
fill="#000000" stroke="none">
<path d="M11915 7170 c-124 -10 -266 -34 -365 -61 -41 -11 -93 -24 -115 -29
-22 -5 -78 -22 -125 -38 -105 -36 -164 -61 -377 -158 -136 -62 -128 -61 -333
-68 -201 -7 -355 -24 -450 -51 -55 -15 -154 -39 -240 -56 -161 -34 -537 -52
-580 -29 -11 6 -38 37 -60 70 -45 66 -73 90 -107 90 -22 0 -23 -3 -17 -42 4
-24 7 -47 8 -53 0 -6 -44 -13 -104 -16 -109 -7 -143 -14 -201 -44 -50 -26
-149 -95 -149 -103 0 -5 22 -31 49 -59 27 -28 59 -73 72 -101 21 -45 26 -50
62 -55 22 -3 79 -1 126 3 115 12 188 34 296 87 59 29 231 36 606 24 479 -15
551 -26 723 -115 129 -68 194 -104 229 -128 61 -43 435 -225 486 -236 30 -7
100 -15 155 -19 87 -5 103 -3 115 11 14 17 51 22 51 7 0 -14 97 -112 150 -153
50 -38 177 -101 238 -118 95 -25 268 -41 472 -43 229 -2 280 6 280 43 0 55 31
65 80 24 32 -28 31 -28 125 -1 28 8 100 22 160 31 61 9 171 25 245 37 74 11
176 24 225 29 50 5 133 14 185 20 52 6 297 14 543 17 399 5 451 8 469 23 18
14 19 19 8 41 -46 86 -112 133 -202 144 -67 7 -77 27 -26 48 l33 13 -75 53
c-101 71 -130 82 -236 88 -143 9 -682 -26 -889 -57 -91 -14 -389 -89 -533
-134 -128 -41 -122 -39 -122 -27 0 9 116 57 180 76 14 4 39 13 55 21 49 22
292 82 415 103 135 23 340 39 603 47 165 5 188 8 185 22 -7 34 -224 79 -426
89 -105 5 -122 8 -120 22 2 9 12 17 23 19 10 3 35 15 55 27 86 54 198 58 435
15 200 -35 282 -55 585 -140 370 -103 485 -129 571 -130 55 0 146 16 212 37
109 35 207 172 207 288 0 67 -10 89 -50 110 -32 16 -50 4 -30 -20 13 -16 18
-114 6 -133 -11 -18 -36 3 -36 30 0 29 -37 96 -60 108 -28 15 -37 -11 -16 -42
10 -13 16 -43 16 -73 0 -60 -30 -111 -87 -146 -35 -22 -49 -24 -158 -23 -131
1 -140 3 -790 179 -33 9 -78 20 -100 25 -22 4 -71 15 -110 24 -81 18 -222 41
-313 51 -80 9 -156 29 -187 49 -25 17 -65 22 -65 8 0 -4 -17 -16 -37 -27 -83
-44 -178 -98 -183 -105 -3 -4 -15 -10 -27 -14 -30 -10 -29 -20 4 -32 18 -6
-42 -9 -193 -9 l-219 0 -3 28 c-5 43 -54 59 -192 66 -110 6 -115 7 -118 29 -5
33 -34 43 -143 49 -96 6 -99 7 -99 30 0 31 -33 43 -123 43 -58 0 -75 4 -93 21
-21 20 -23 20 -99 4 -80 -16 -105 -11 -105 22 0 13 -15 15 -82 12 -75 -4 -83
-2 -80 14 2 15 -6 17 -60 17 -49 -1 -74 -7 -113 -28 -139 -76 -168 -107 -163
-168 3 -34 6 -39 38 -46 88 -21 217 -70 365 -139 167 -78 434 -274 547 -400
118 -133 148 -182 148 -243 0 -63 -15 -67 -221 -67 -280 1 -492 41 -599 114
-67 46 -214 160 -222 173 -10 15 -103 86 -148 113 -84 50 -232 122 -272 131
-104 27 -131 30 -145 19 -18 -16 -1 -36 40 -45 18 -3 77 -30 131 -58 130 -67
132 -68 156 -98 50 -64 4 -82 -111 -44 -112 36 -165 63 -367 183 -199 119
-377 213 -437 231 -168 50 -379 65 -865 60 -359 -4 -361 -4 -487 -64 -52 -24
-179 -53 -243 -56 l-59 -2 -51 52 c-30 30 -50 60 -48 70 4 22 98 68 168 83 30
6 92 11 137 11 73 -1 92 -5 162 -37 l80 -36 133 11 c456 37 498 42 613 70 171
41 166 40 430 49 150 4 248 11 260 19 11 6 56 27 100 47 44 20 98 45 120 55
110 51 442 158 590 191 301 66 733 62 980 -10 17 -5 57 -15 90 -22 90 -20 396
-126 414 -144 12 -11 17 -41 19 -105 4 -98 9 -107 69 -121 130 -30 257 -38
307 -19 32 12 76 50 76 66 0 18 -28 25 -66 18 -19 -3 -55 -3 -82 1 -62 10 -35
20 76 28 117 9 187 42 219 105 16 31 9 42 -28 42 -35 0 -38 13 -6 27 24 11 57
68 57 97 0 30 -30 29 -133 -2 -118 -35 -230 -58 -337 -68 -58 -5 -78 -12 -92
-28 l-17 -21 -1 21 c0 11 -8 28 -18 37 -49 45 -323 142 -542 194 -222 51 -473
71 -685 53z m1655 -329 c0 -16 -111 -33 -225 -35 -98 -1 -110 1 -113 17 -3 16
3 17 60 12 49 -4 220 4 271 14 4 0 7 -3 7 -8z m-1275 -91 c3 -5 1 -10 -6 -10
-12 0 -137 -98 -176 -137 -21 -22 -53 -31 -53 -15 0 31 189 175 190 145 0 -5
5 0 11 10 11 19 25 22 34 7z m-270 -42 c-75 -67 -93 -79 -99 -70 -7 11 47 63
94 91 55 33 57 25 5 -21z m355 -68 c0 -5 -26 -27 -59 -49 -32 -22 -61 -47 -65
-56 -7 -18 -47 -17 -53 1 -5 16 42 59 97 89 47 25 80 32 80 15z m400 -14 c0
-8 -15 -17 -36 -20 -46 -9 -138 -49 -247 -108 -93 -51 -141 -61 -135 -31 4 22
55 51 189 108 89 37 132 50 222 64 4 0 7 -5 7 -13z m895 -117 c15 -15 -17 -10
-45 7 l-25 15 30 -6 c17 -4 34 -11 40 -16z m-669 2 c-3 -4 -34 -16 -68 -25
-111 -30 -210 -67 -306 -112 -90 -43 -112 -47 -112 -20 0 36 122 94 285 135
114 29 211 39 201 22z m265 -115 c0 -6 -87 -31 -193 -58 -105 -26 -233 -63
-283 -83 -98 -38 -115 -41 -115 -23 0 39 108 82 333 132 186 42 258 51 258 32z
m1253 -266 c20 -20 -42 -28 -254 -34 -341 -9 -609 -45 -995 -132 -88 -20 -178
-41 -200 -46 -22 -5 -61 -11 -87 -15 -43 -5 -48 -4 -48 15 0 29 58 48 300 99
339 70 549 101 830 123 122 10 441 3 454 -10z"/>
<path d="M8901 6577 c-31 -16 -30 -27 3 -51 l26 -20 70 24 c72 25 88 43 48 54
-39 10 -122 6 -147 -7z"/>
<path d="M8536 6493 c-33 -14 -129 -42 -214 -64 -157 -39 -189 -52 -163 -69
41 -25 485 -24 564 1 40 13 44 23 24 61 -26 51 -88 98 -127 97 -14 -1 -52 -12
-84 -26z"/>
<path d="M3995 6107 c-105 -34 -511 -414 -689 -645 -11 -15 -26 -31 -33 -37
-7 -5 -34 -39 -60 -75 -45 -61 -109 -142 -143 -180 -8 -9 -19 -24 -25 -32 -5
-8 -37 -49 -70 -90 -33 -41 -70 -88 -82 -104 -12 -16 -29 -38 -38 -49 -9 -11
-35 -45 -58 -76 -23 -31 -68 -88 -99 -127 -32 -39 -58 -75 -58 -81 0 -5 -6
-14 -13 -18 -7 -4 -40 -44 -72 -88 -32 -44 -61 -82 -65 -85 -3 -3 -19 -23 -36
-45 -42 -58 -51 -63 -134 -70 -170 -15 -282 -45 -328 -88 -39 -36 -168 -217
-200 -282 -59 -117 -43 -168 50 -167 53 1 95 16 191 69 l82 46 140 -6 c217
-10 396 -42 770 -135 245 -62 300 -64 398 -19 56 26 75 42 181 160 38 43 72
77 77 77 5 0 22 -29 38 -63 30 -67 66 -101 123 -118 76 -21 165 38 467 314
126 114 131 110 66 -68 -32 -90 -35 -109 -33 -183 3 -80 4 -85 36 -113 46 -41
91 -39 185 9 61 32 174 115 262 193 264 234 258 228 265 298 3 34 4 64 2 66
-5 5 -60 -31 -77 -49 -31 -34 -176 -143 -222 -167 -67 -35 -103 -37 -140 -5
-24 21 -28 31 -27 73 2 60 29 111 131 253 138 192 146 207 147 271 1 41 -4 63
-17 76 -23 26 -22 50 3 63 11 6 27 25 36 42 34 65 -13 143 -102 168 -227 64
-907 -318 -1089 -612 -49 -79 -65 -138 -65 -245 0 -68 -3 -93 -13 -93 -7 0
-48 11 -91 25 -43 14 -146 43 -230 66 -83 22 -173 50 -201 60 -27 11 -83 25
-125 30 -41 6 -78 13 -81 15 -6 3 -249 34 -271 34 -23 0 3 40 102 161 148 182
181 222 242 304 174 234 408 518 543 660 47 49 85 91 85 92 0 1 24 24 53 52
50 48 97 67 97 39 0 -7 -39 -62 -87 -123 -47 -60 -102 -135 -121 -165 -20 -30
-48 -71 -63 -90 -44 -56 -137 -249 -159 -330 -26 -97 -27 -173 -1 -199 17 -17
25 -18 56 -10 61 17 142 77 255 189 136 135 171 190 136 215 -9 7 -16 18 -16
25 0 7 34 68 75 135 41 68 75 126 75 130 0 4 10 21 23 38 29 42 72 118 103
187 14 30 34 73 44 95 31 64 50 154 49 225 -1 85 -7 104 -47 144 -37 38 -65
47 -107 33z m625 -1438 c0 -28 -324 -362 -460 -474 -138 -114 -189 -145 -239
-145 -39 0 -46 23 -32 107 19 119 64 175 231 287 117 79 287 166 400 205 97
34 100 35 100 20z"/>
<path d="M7852 6049 c-28 -10 -59 -24 -67 -31 -7 -7 -46 -35 -86 -63 -39 -27
-106 -77 -148 -110 -42 -33 -94 -73 -116 -89 -22 -17 -42 -32 -45 -35 -3 -4
-30 -26 -60 -51 -30 -24 -64 -52 -75 -63 -11 -10 -40 -37 -65 -59 -25 -22 -65
-59 -90 -81 -25 -23 -81 -74 -125 -113 -44 -39 -105 -94 -135 -123 -30 -28
-82 -75 -115 -104 -33 -28 -91 -84 -130 -124 -126 -128 -145 -140 -229 -148
-81 -8 -116 3 -116 36 0 23 24 33 95 43 98 13 134 43 81 67 -28 13 -151 -8
-213 -37 -51 -24 -127 -80 -204 -151 -154 -142 -203 -217 -185 -287 8 -33 57
-48 143 -44 85 4 87 -6 18 -92 -138 -171 -154 -186 -222 -221 -37 -19 -90 -52
-118 -74 -65 -51 -209 -198 -235 -239 -10 -18 -29 -43 -41 -56 -30 -35 -61
-106 -62 -146 -1 -43 24 -63 81 -64 79 0 146 51 332 255 30 34 112 121 181
195 69 74 148 159 175 189 27 30 81 88 120 130 39 42 82 88 95 103 l24 27 221
10 c122 6 256 11 298 11 90 0 92 -5 45 -90 -102 -181 -149 -281 -189 -400 -46
-136 12 -269 118 -270 69 0 201 61 291 135 86 71 275 258 294 290 4 8 -2 29
-14 49 l-21 36 -37 -29 c-20 -16 -45 -38 -56 -48 -44 -41 -131 -93 -158 -93
-20 0 -31 7 -39 26 -16 35 4 89 84 230 34 60 71 128 82 151 24 48 35 52 136
54 41 0 86 4 99 8 24 7 30 14 87 121 41 78 101 169 142 214 47 53 35 61 -89
61 -93 0 -99 1 -99 20 0 12 4 25 9 30 7 9 39 66 108 195 13 25 34 61 45 80 11
19 44 80 73 135 44 83 105 192 173 310 64 112 97 275 61 310 -27 28 -70 32
-127 14z m-282 -417 c0 -10 -101 -189 -180 -317 -68 -111 -98 -163 -153 -267
-58 -108 -55 -107 -197 -118 -253 -19 -260 -19 -260 -4 0 15 69 86 270 279
180 172 208 198 359 322 124 102 161 126 161 105z"/>
<path d="M13022 5449 c-23 -12 -59 -38 -78 -59 -37 -39 -154 -198 -154 -210 0
-4 -42 -12 -92 -18 -157 -19 -269 -91 -345 -222 -15 -25 -41 -65 -58 -90 -18
-25 -36 -56 -40 -69 -7 -22 -5 -24 22 -18 15 3 68 9 116 13 110 9 115 1 51
-92 -40 -58 -154 -198 -175 -214 -47 -37 -175 -156 -191 -179 -22 -30 -160
-130 -218 -158 -74 -35 -143 -42 -171 -17 -18 16 -20 27 -16 74 10 106 60 190
231 386 134 153 146 168 152 199 8 43 -13 162 -38 214 -20 41 -23 43 -57 38
-59 -7 -116 -48 -399 -286 -108 -90 -288 -265 -417 -404 -90 -98 -115 -108
-115 -48 0 44 40 110 113 189 25 26 66 70 92 97 74 79 160 188 174 223 18 42
7 80 -27 93 -15 6 -56 11 -92 11 -59 1 -71 -3 -130 -40 -80 -51 -145 -126
-247 -288 -23 -35 -83 -164 -83 -177 0 -7 -4 -17 -8 -22 -5 -6 -14 -30 -21
-55 -19 -68 -22 -71 -112 -132 -106 -72 -228 -133 -297 -147 -105 -22 -211
-11 -249 25 -20 19 -34 87 -31 148 l3 59 75 32 c120 50 276 131 354 182 157
105 270 259 285 389 9 80 5 96 -32 139 -28 32 -39 37 -89 42 -130 13 -292 -36
-428 -129 -104 -71 -171 -138 -277 -274 -36 -46 -110 -202 -138 -290 -17 -53
-35 -89 -53 -106 -32 -29 -224 -158 -236 -158 -4 0 -22 -11 -40 -25 -37 -28
-56 -32 -56 -12 0 12 101 213 164 327 83 149 106 217 108 309 2 71 1 75 -30
102 -18 16 -38 29 -45 29 -28 0 -78 -51 -172 -175 -118 -157 -157 -206 -210
-266 -22 -25 -49 -56 -61 -70 -48 -57 -130 -122 -200 -159 -67 -36 -83 -40
-145 -40 l-69 0 0 34 c0 60 38 162 84 224 26 35 77 84 122 117 71 53 279 185
291 185 5 0 91 54 163 103 66 45 140 110 140 123 0 6 7 17 15 24 36 30 4 86
-62 108 -47 16 -164 -3 -203 -32 -8 -7 -33 -18 -55 -25 -22 -7 -47 -19 -55
-26 -8 -7 -40 -26 -70 -42 -174 -92 -339 -221 -413 -323 -65 -89 -147 -271
-147 -327 0 -25 -34 -55 -126 -109 -64 -38 -90 -48 -139 -52 -77 -6 -90 8 -89
87 1 96 53 184 199 334 150 153 179 202 173 293 -4 67 -21 101 -70 137 -32 24
-62 24 -231 -2 -192 -29 -177 -32 -177 39 0 57 -2 61 -27 71 -34 13 -55 4
-133 -56 -121 -93 -234 -260 -268 -397 -14 -53 -4 -90 28 -110 11 -7 20 -18
20 -24 0 -7 -36 -47 -80 -91 -70 -69 -81 -85 -89 -128 -13 -71 -6 -80 37 -47
34 25 174 162 264 258 32 35 49 43 140 67 138 37 178 43 178 27 0 -11 -46 -80
-84 -127 -76 -92 -157 -241 -180 -330 -18 -70 -21 -161 -6 -214 6 -21 29 -56
51 -79 33 -34 48 -42 89 -47 77 -9 174 36 305 142 89 72 98 80 136 113 42 37
79 43 79 12 0 -11 11 -43 24 -72 83 -187 241 -143 561 156 68 64 105 82 105
51 0 -9 -38 -91 -85 -183 -81 -161 -88 -170 -162 -237 -129 -115 -376 -366
-425 -430 -81 -108 -137 -217 -145 -284 -5 -41 -2 -52 16 -70 11 -11 30 -21
41 -21 41 0 120 39 186 92 106 85 166 154 304 349 94 134 106 152 163 241 61
94 83 114 318 277 94 66 153 110 212 159 70 58 80 54 89 -36 18 -176 118 -282
270 -284 163 -3 304 68 563 281 40 33 77 52 89 48 8 -3 15 -33 19 -79 6 -80
27 -143 55 -164 9 -7 36 -14 58 -14 36 0 49 7 92 45 28 25 75 78 105 118 154
203 402 477 433 477 23 0 15 -32 -21 -90 -95 -153 -126 -217 -151 -308 -29
-107 -28 -151 7 -231 23 -53 56 -75 115 -75 40 0 111 22 146 46 14 10 29 18
32 18 10 0 154 98 161 109 3 6 34 31 68 57 83 63 227 195 228 208 0 13 84 76
100 76 15 0 7 -38 -31 -145 -59 -163 -73 -262 -49 -336 17 -49 44 -75 96 -90
128 -36 319 65 623 329 58 51 110 92 116 92 7 0 14 -32 18 -80 6 -62 15 -95
41 -148 46 -91 85 -117 174 -117 57 0 76 5 140 39 66 34 114 69 314 233 29 23
57 42 63 43 12 0 24 -66 24 -131 0 -44 15 -84 44 -116 15 -17 30 -23 64 -23
41 0 48 4 111 68 36 37 99 110 138 162 112 148 355 410 380 410 23 0 14 -29
-31 -103 -132 -217 -176 -348 -155 -461 13 -71 36 -107 84 -130 80 -38 231 32
439 203 44 35 87 72 96 80 82 78 95 78 104 4 4 -32 19 -89 35 -128 35 -87 78
-126 149 -133 42 -4 55 0 104 32 48 30 155 113 194 151 6 5 43 39 83 75 40 36
91 82 112 103 65 61 87 44 51 -38 -10 -22 -24 -62 -32 -90 -7 -27 -17 -55 -22
-62 -16 -20 -14 -147 2 -179 27 -55 51 -74 92 -74 38 0 178 56 178 71 0 4 17
18 38 31 20 12 72 54 116 93 43 38 90 79 105 90 15 11 67 57 115 102 l88 81 3
59 c2 32 1 61 -2 66 -4 7 -74 -41 -103 -72 -21 -23 -180 -146 -207 -160 -35
-18 -97 -13 -127 10 -22 17 -26 28 -26 73 0 68 42 152 131 263 149 186 176
255 129 338 -26 46 -26 47 10 68 60 36 57 116 -8 173 -65 57 -139 55 -322 -6
-259 -87 -503 -232 -703 -419 -61 -57 -139 -160 -151 -198 -4 -13 -12 -23 -17
-23 -5 0 -9 -14 -9 -31 0 -37 -34 -73 -130 -134 -88 -57 -150 -79 -201 -72
-23 3 -46 11 -51 19 -5 7 -7 40 -5 73 7 97 46 160 249 399 92 107 129 159 134
184 7 38 -19 180 -42 223 -7 15 -20 29 -29 33 -64 24 -556 -383 -823 -681 -72
-81 -112 -107 -134 -85 -8 8 -4 24 11 57 27 57 73 116 190 243 120 130 166
190 180 234 23 70 3 90 -101 103 -45 6 -64 3 -99 -13 -130 -59 -325 -321 -399
-537 -11 -32 -20 -66 -20 -75 0 -22 -53 -74 -95 -94 -18 -9 -38 -23 -45 -31
-20 -24 -175 -96 -220 -102 -71 -10 -142 34 -161 99 -5 18 -7 55 -3 82 7 52
11 58 156 206 77 79 238 266 257 300 57 98 63 135 28 175 -29 35 -93 43 -165
22 -88 -27 -222 -126 -281 -210 -114 -159 -152 -230 -198 -367 -16 -47 -35
-84 -52 -98 -65 -57 -292 -211 -345 -235 -75 -34 -138 -36 -160 -5 -24 33 -21
154 4 231 38 114 137 301 219 414 17 23 31 46 31 51 0 26 42 44 117 49 93 6
174 27 196 51 55 59 59 64 134 211 29 57 59 111 65 118 16 20 -2 30 -74 38
-69 8 -71 14 -25 87 44 72 57 103 57 142 0 29 -5 36 -31 45 -47 16 -79 14
-127 -10z m-2434 -616 c5 -35 -36 -102 -103 -167 -100 -99 -315 -234 -315
-199 0 16 90 156 141 219 107 131 267 216 277 147z m5362 -162 c0 -26 -369
-398 -490 -494 -136 -108 -156 -120 -203 -121 -42 -1 -42 -1 -45 39 -5 59 15
137 49 188 75 113 366 288 649 390 24 9 40 8 40 -2z"/>
<path d="M13830 5418 c-53 -15 -133 -80 -170 -138 -30 -47 -34 -60 -34 -126
-1 -67 1 -75 29 -104 27 -29 34 -31 77 -27 110 10 238 172 238 301 0 35 -33
96 -52 96 -7 0 -22 2 -33 4 -11 3 -36 0 -55 -6z"/>
</g>
</svg>
